<?xml version="1.0" encoding="utf-8"?>
<!-- Generator: Adobe Illustrator 26.0.0, SVG Export Plug-In . SVG Version: 6.00 Build 0)  -->
<svg version="1.1" id="Layer_1" xmlns="http://www.w3.org/2000/svg" xmlns:xlink="http://www.w3.org/1999/xlink" x="0px" y="0px"
	 viewBox="0 0 1242 310" style="enable-background:new 0 0 1242 310;" xml:space="preserve">
<style type="text/css">
	.st0{fill:#FFFFFF;}
	.st1{font-family:'GaramondPremrPro-Capt';}
	.st2{font-size:48px;}
</style>
<path d="M144.9,86.4l-0.7,1c1.6,0.1,3.2,0.2,4.8,0.3c1.2,0.4,2.5,0.7,3.7,1l-0.2,0.4c4.7,1,8.6,3.4,12.7,5.7
	c1.9,1.4,3.8,2.8,5.7,4.3c4.1,3.5,7.3,7.3,10.2,11.8c0.8,1.2,1.6,2.5,2.5,3.7c0.4,1,0.7,2.1,1.1,3.1l0.6-0.2
	c0.2,1.2,0.5,2.3,0.7,3.5c0.7,1.4,1.3,2.8,2,4.1c0.3,1.9,0.5,3.7,0.7,5.6l0.8-0.4c0.1,6.8,0.1,13.6,0,20.4l-0.7-0.4
	c-0.4,2.4-0.9,4.9-1.3,7.3l-0.7-0.2c-0.4,1.7-0.9,3.5-1.3,5.2l-0.7-0.2c-0.4,1.4-0.9,2.8-1.3,4.2l-0.6-0.1
	c-2.9,6.2-7.6,10.4-12.4,15.1c-1.8,1.7-3.9,3-6,4.3l-0.1,0.8l-1.3-0.1c-1.3,1.9-2.7,1.8-4.7,2.3l0.2,1.1l-1.9-0.6l-0.4,1.4l-1.8-0.7
	l0.1,1.2c-2.7,0.5-5.4,1.2-8.2,1.4l0.3,0.7c-5.4,0.1-10.2,1.6-15.7,0.5c-5-0.3-9.6-1.9-14.5-2.7l0-1.1l-1.9,0.7l-0.2-1.4l-2,0.5
	l0.1-1.5l-1.9,0.4l-0.3-0.7c-4.7-2.2-8.6-5.2-12.5-8.6l-0.9-1.2l-1.5-0.9l0.3-1l-0.9,0.2c-1.2-1.7-2.4-3.3-3.6-5l-0.5,0.1
	c-0.4-1.1-0.9-2.2-1.3-3.3l-0.6,0.2c-1.4-2.6-2.7-5.2-3.6-8l-1-0.1l0.3-1.3c-4.1-9.2-3.1-18.2-2.8-28.1c0.5-1.9,0.8-3.8,1-5.7
	l0.6,0.3c0.4-2.1,0.9-4.2,1.4-6.2l0.8,0.3c0.4-1.4,0.8-2.8,1.2-4.2l0.7,0.1c0.3-1.1,0.7-2.2,1-3.2l0.6-0.1c2.9-5.3,7-9.5,11.4-13.5
	c3.9-2.8,7.5-5.7,12-7.4l0-0.6c1.7-0.4,3.5-0.9,5.2-1.3l-0.3-0.7c2.8-0.5,5.6-1.2,8.5-1.4l-0.7-0.8C131.9,86,138.2,85.8,144.9,86.4z
	"/>
<path d="M983.8,91.6l-0.1-1c2.4,0.2,4.7,0.6,7.1,0.9c2.4,0.1,4.7,0.4,7,1c1.2,0.1,2.5,0.2,3.7,0.2l-0.2,0.8c1.7,0.4,3.5,0.8,5.2,1.2
	l-0.1,0.5c2,0.9,3.9,1.9,5.7,3.2l1.4-0.1l0,0.8c1.9,1.2,3.7,2.6,5.5,3.9c0.7,0.7,1.3,1.3,2,1.9c0.6,0.8,1.3,1.6,1.9,2.4l0.4,0.1
	c0.6,0.9,1.2,1.9,1.8,2.8c1.1,1.6,2.2,3.1,3.4,4.7l-0.3,1.6l1-0.1c0.4,0.9,0.8,1.7,1.2,2.6l-0.1,1.5l0.9-0.2
	c0.3,1.2,0.7,2.4,1.1,3.6c0.1,0.9,0.1,1.8,0.2,2.7l0.9-0.4c0.1,0.9,0.1,1.8,0.2,2.7c0.8,2.9,0.9,5.7,0.9,8.7l0.9-0.1
	c-0.1,3.6-0.1,7.2,0,10.8l-0.9-0.1c0,2.9-0.1,5.7-0.8,8.5c-0.1,1.2-0.2,2.5-0.3,3.8l-0.6-0.3c-0.7,2.7-1.5,5.4-2.5,8.1l-0.8,0.2
	c0.1,0.7,0.2,1.3,0.3,2l-0.9-0.1c-1.4,3.3-3.5,6.2-5.6,9.1l-0.5-0.1c-0.5,0.6-1,1.2-1.5,1.8c-0.7,0.7-1.4,1.4-2.1,2
	c-1.5,1.4-3.2,2.5-4.8,3.8c-1.1,0.6-2.2,1.3-3.3,2c-1.6,0.6-3.1,1.3-4.7,1.8l0.2,0.8c-0.6,0-1.2,0-1.7,0c-1.5,0.4-3,0.8-4.5,1.1
	l0.2,0.6c-5.5,0.7-11,1.4-16.6,1.1c-6.2,0.1-11.8-1.7-17.6-3.1l0.2-1.1l-1.4,0.3c-1.2-0.4-2.3-0.9-3.5-1.4l0-0.9l-1.4,0.1
	c-1.4-1.3-3-2.4-4.3-3.7l-1.3,0l0.1-1.2l-0.9,0.2c-0.8-1.1-1.7-2.1-2.5-3.2l-0.4,0.1c-1.3-1.8-2.6-3.6-3.9-5.4
	c-1.1-1.8-2.1-3.6-2.9-5.4l-0.8-0.3l0.6-1.9l-1.3,0.1c-0.1-0.8-0.2-1.7-0.3-2.5c-0.4-1.5-0.7-3.1-1-4.6l-0.8,0.1
	c-0.1-1.2-0.2-2.4-0.2-3.6c-0.6-2.7-0.8-5.4-1.3-8.1c-1-7.2,0.2-13.8,1.5-20.9c0.1-0.9,0.1-1.8,0.2-2.6l0.7,0.3
	c0.4-1.3,0.7-2.6,1.1-3.9l-0.2-1.4l1,0.2c0.4-1.5,0.8-2.9,1.2-4.4l0.7,0.3c0.5-1.4,0.9-2.8,1.4-4.2l0.8,0.3c0.4-1.1,0.9-2.1,1.3-3.2
	h0.5c3-4.2,6.9-7.4,10.9-10.6c1.2-0.5,2.4-1,3.6-1.6l-0.2-1l1.9,0.4l0.2-1.3l2,0.5l-0.1-1.4c0.5,0,1,0.1,1.5,0.1
	c1.2-0.4,2.5-0.8,3.7-1.2l-0.3-0.7c0.9,0,1.8,0,2.7-0.1C978.1,91.7,980.7,91.4,983.8,91.6z"/>
<path d="M266,92.3l1-0.5c5.6-0.5,11.3-0.2,17-0.1c3.5,1,7.1,2,10.6,3l0,0.5c2.6,1,5.1,2.3,7.5,3.7c2.5,1.9,4.9,3.9,7.2,5.9
	c1.4,1.7,2.8,3.4,4.1,5.1c0.7,0.8,1.4,1.5,2.1,2.2l-0.2,1.2l1.4,0.3l-0.5,1.9l1.3-0.2c0.4,1.4,0.8,2.8,1.2,4.2l0.8-0.3
	c0.1,1.7,0.2,3.4,0.3,5.1l1.4-0.1c0.7,3.5,1.4,7,1.4,10.7c0.1,7.3,0.2,14.7-0.4,22.1c-0.4,1.5-0.7,3.1-1,4.6l-0.8-0.2
	c0,0.9-0.1,1.7-0.1,2.6c-0.4,1.2-0.8,2.4-1.1,3.6l-0.5-0.1c-0.3,0.9-0.7,1.8-1,2.7l0,1.4l-0.8,0c-2.9,5.8-7.7,11.3-13.3,14.6l-0.1,1
	c-1.4,0.5-2.7,1-4.1,1.4l0.1,1.2l-1.8-0.6l-0.2,1.4l-1.3-0.2c-1.6,0.7-3.3,1.4-4.9,2.1c-0.9,0-1.9-0.1-2.8-0.1l0.2,1.1
	c-7.6,0.2-15.1,0.3-22.7,0.1c-1.8,0-3.3-0.4-5-1c-0.7-0.1-1.4-0.2-2-0.3c-1.2-0.3-2.4-0.7-3.6-1l0.2-0.6c-1.7-0.5-3.4-0.9-5.1-1.4
	l0.2-0.5c-2-1.1-3.9-2.3-5.8-3.6c-0.8-0.7-1.6-1.4-2.4-2.1l0.2-0.7l-1.2,0.1l0.1-1.1l-1,0.2c-0.4-0.8-0.8-1.5-1.2-2.3l-0.6,0.2
	c-2.2-3.1-4.2-6.3-6-9.7c-0.5-1.5-1-3-1.4-4.5l-0.5,0.2c-0.4-1.5-0.7-3.1-1.1-4.6c-0.1-1.5-0.2-3.1-0.3-4.6l-0.9,0.3
	c-0.3-9.1-0.4-18.3,0-27.4l0.8,0.2c0.3-2.5,0.9-4.9,1.3-7.3l0.6,0.3c0.4-1.2,0.8-2.5,1.2-3.7l-0.1-1.3l1.5,0l-0.4-2l1.3-0.1
	l-0.3-1.9l1.4,0l-0.1-1.4c3.2-4.2,6.5-8,10.6-11.3c0.9-0.6,1.9-1.3,2.8-2c2.4-1.5,4.8-2.8,7.4-3.8l0-0.6c2.4-0.5,4.7-1.1,7.1-1.4
	l-0.2-0.8C264.1,92.4,265,92.3,266,92.3z"/>
<path d="M408,92.4l1-0.5c5.6-0.5,11.3-0.3,16.9-0.1c1.9,0.5,3.8,0.8,5.7,1l-0.3,0.5c1.3,0.4,2.5,0.8,3.8,1.2l1.4-0.3l-0.2,1.3
	c0.6,0,1.3,0,1.9,0c1.5,0.9,3.1,1.7,4.6,2.5c2.2,1.6,4.3,3.2,6.6,4.7l-0.2,0.8l1.2-0.2l0,0.6c1.8,1.6,3.2,3.3,4.5,5.3l1.5,0.3
	l-0.3,1.9l1-0.1c1.3,2.6,2.7,5.3,3.7,8.1l0.9-0.3l-0.5,1.4h1.1c0,1-0.1,2-0.1,3l0.8-0.1c0.4,1.2,0.7,2.4,1.1,3.5
	c0.1,1.5,0.2,3.1,0.3,4.6l1-0.3c0.1,3,0.1,6,0.1,9.1l0.9,0.1c-0.8,4.7-1,9.3-1,14.1l-1-0.4c-0.1,1.1-0.2,2.1-0.3,3.2
	c0.6-0.9,1.2-1.8,1.8-2.7c-0.6,1.4-1.3,2.8-1.9,4.2c-0.8,2.9-1.8,5.8-2.7,8.7l-1.1-0.1l0.2,1.4c-0.5,1.2-0.9,2.4-1.4,3.6l-0.9-0.1
	l0,1.4c-0.8,1-1.6,2.1-2.4,3.1c-0.9,1.2-1.8,2.5-2.7,3.7l-0.8-0.1l-0.1,1.4c-5.1,3.4-8.8,7.4-14.9,9.1l0.3,0.5
	c-2.4,0.5-4.9,1-7.3,1.3l0.4,0.7c-1.9,0.2-3.9,0.4-5.8,0.8c-7,0.6-13.7,0.1-20.6-0.8l0.3-0.7c-2.4-0.3-4.8-0.8-7.2-1.3l0.1-1.2
	l-1.9,0.7l-0.2-1.5l-1.3,0.3c-3.9-2.3-7.4-4.8-10.9-7.8c-2.2-2.5-4.1-5.2-6.2-7.8c-0.9-1.5-1.4-2.9-1.8-4.6l-1,0.1l0.2-1.4
	c-0.4-1.3-0.8-2.5-1.2-3.8l-0.4,0.3c-0.3-1.2-0.7-2.5-1-3.7c-0.1-1.5-0.2-3.1-0.3-4.6l-1,0.3c-0.1-7.8-0.4-15.7,0-23.7
	c0.2-2.7,1.2-5.4,2-8.1l-0.3-1.5l1,0.2c0.4-1.3,0.8-2.6,1.2-3.8l-0.2-1.2l1-0.2c1.1-2.7,2.5-5.3,3.8-7.8l1.5,0l-0.2-2.1l1.4,0.1
	l0-1.4c1.9-1.7,3.8-3.5,5.5-5.4l1.4,0l0-0.8c0.9-0.6,1.7-1.2,2.6-1.8c0.6-0.5,1.2-1.1,1.9-1.6l1.6,0.2l-0.1-1.5l1.8,0.6l0.4-1.4
	l1.2,0.4c1-0.6,2-1.2,3-1.9c1.5-0.2,3-0.3,4.5-0.5l-0.2-0.9C406.2,92.4,407.1,92.4,408,92.4z"/>
<path d="M710.9,91.8c1.5,0.4,3.1,0.7,4.7,1l-0.1,0.6c2,0.4,4,0.9,6.1,1.3l-0.1,1.2l1.9-0.5l0.3,1.4l1.9-0.4l-0.1,0.9
	c2.1,1.1,4.2,2.3,6.2,3.5v0.4c1.5,1.2,3,2.5,4.4,3.8c0.8,0.7,1.6,1.4,2.4,2.1l-0.1,1.5l0.9-0.2c1.6,2.4,3.1,4.7,4.6,7.2l0.8,0.1
	l-0.5,1.9l1.2-0.2c0.5,1.8,0.9,3.5,1.4,5.3l0.7-0.3c0.4,2.1,0.9,4.2,1.3,6.3l0.8-0.4c0,2.4,0.1,4.8,0.1,7.2l1,0
	c-0.1,1.1-0.2,2.2-0.4,3.2l1-0.2c0,2.2,0,4.4,0.2,6.6l-0.9-2.2c0.9,7.4-2.1,14.1-2.4,21.3l-1.3,0c-0.4,1.3-0.8,2.5-1.2,3.8l0.1,1.4
	l-1.5,0l0.3,1.3c-0.4,0.9-0.9,1.8-1.3,2.7l-0.4-0.1c-3.5,6.1-8.7,11.2-14.8,14.7c-0.5,0.4-1.1,0.8-1.6,1.1c-0.8,0.4-1.6,0.9-2.4,1.3
	l-1.5-0.3l0.2,1.1c-2.1,0.4-4.2,0.9-6.4,1.3l0.3,0.7c-1.8,0.1-3.7,0.3-5.5,0.5c-6.2,1-13.8,0.9-19.9-0.2c-0.9-0.1-1.8-0.1-2.7-0.2
	l0.3-0.9c-1.2-0.1-2.4-0.2-3.6-0.3c-1.2-0.4-2.3-0.8-3.5-1.1l-0.1-1.1l-1.7,0.8l-0.2-1.4c-0.7,0.1-1.3,0.2-2,0.3l0.1-0.8
	c-6.9-3.3-13.3-9.4-16.5-16.4l-0.9,0.1l0.5-1.9l-1.4-0.2l0.6-1.9l-1.1,0.2c-0.3-1.2-0.6-2.4-0.9-3.6c-0.6-1.7-1.2-3.5-1.8-5.2
	c-0.3-2.2-0.5-4.4-0.6-6.7l-0.8,0.4c-0.4-6.8-0.5-13.5,0-20.4l0.8,0.3c0.1-3.2,0.7-6.3,1.3-9.4l0.5,0.3c0.4-1.3,0.8-2.5,1.2-3.8
	l-0.2-1.4l1,0.2c0.7-1.4,0.7-3.1,1.5-4.5l0.4,0.3c1.5-3.2,3.5-5.9,5.6-8.6c1.3-1.2,2.6-2.4,3.9-3.6l-0.1-0.4c2.3-1.6,4.5-3.2,6.7-5
	c0.5,0,1-0.1,1.5-0.1l-0.1-1.1c0.9-0.1,1.9-0.1,2.8-0.2c0.3-0.8,0.5-1.6,0.8-2.4c0.2,1,0.5,1.9,0.7,2.8c0.2-0.8,0.5-1.7,0.7-2.5
	l1.3,0c1.6-0.4,3.1-0.8,4.7-1.2l-0.4-0.5c1.2-0.1,2.5-0.3,3.7-0.5C698.8,91.1,705,91.5,710.9,91.8z"/>
<path d="M835,92.3l1-0.5c5.6-0.5,11.3-0.2,17-0.1c3.1,0.8,6.1,1.7,9.1,2.8l1.4-0.3l0,0.9c1.6,0.7,3.1,1.4,4.6,2.2
	c0.8,0.2,1.5,0.3,2.3,0.5l0,1.7c1,0.1,1.9,0.1,2.8,0.2c-0.8,0.1-1.5,0.3-2.2,0.4c0.9,0.2,1.8,0.5,2.7,0.9c3.4,2.7,6.5,5.9,9.1,9.5
	l0.7-0.2l-0.2,1c1,1.4,1.9,2.8,2.9,4.1c0.1,0.7,0.2,1.4,0.2,2.2h1.3l-0.3,1.3c0.5,1.2,0.9,2.4,1.2,3.7l1,0l-0.2,1.3
	c0.4,1.6,0.8,3.2,1.1,4.8l0.7-0.3c0.1,1.2,0.2,2.5,0.3,3.7c1.3,6.4,0.9,13.4,0.5,19.9c-0.5,2.2-0.7,4.5-0.9,6.7l-0.7-0.3
	c-0.3,2.2-0.7,4.3-1.1,6.4l-1.5,0c-0.2,1.8-0.5,3.6-0.9,5.4c-0.7,1.1-1.3,2.3-2,3.4l-0.3-0.1c-2,4.3-5.4,7.2-8.8,10.5
	c-2.2,2.1-4.9,3.6-7.7,4.9l0.1,1l-1.9-0.5l-0.3,1.4l-1.8-0.6v1c-1.2,0.4-2.3,0.7-3.5,1.1c-1.2,0.1-2.4,0.2-3.7,0.2l0.4,0.9
	c-6.9,0.8-13.7,1.4-20.7,0.8c-1.9-0.4-3.8-0.6-5.8-0.8l0.4-0.7c-2.5-0.2-4.9-0.7-7.3-1.3l0.3-0.7c-1.5-0.3-2.9-0.7-4.3-1.1l0.1-1.3
	l-1.8,0.4l-0.2-1.4l-1.9,0.4l0.1-1.5l-1.4,0.1c-3.4-2.8-6.6-5.7-9.2-9.3c-0.9-1.6-1.8-3.1-2.6-4.7l-0.6,0c-0.5-1.7-1-3.3-1.4-5
	l-0.5,0.3c-0.4-1.2-0.8-2.5-1.1-3.7c0-0.9,0-1.8,0-2.6l-0.9,0.2c-0.5-3.4-1.1-6.8-1.2-10.3l-0.9,0.4c-0.1-5.8-0.1-11.5,0-17.3l1,0.3
	c0.1-1.9,0.2-3.7,0.3-5.6c0.4-1.2,0.7-2.5,1-3.8l0.5,0.3c0.4-2.1,1-4.2,1.4-6.3l1.2,0.2l-0.5-2l1.3-0.2l-0.4-1.9l1.5,0l-0.4-1.9
	l0.9-0.1c0.8-1.4,1.7-2.7,2.5-4.1l0.4,0c1.2-1.6,2.5-3.1,3.7-4.6c3.8-3.5,7.7-6.6,12.5-8.8l0.3-0.7c0.7,0.1,1.3,0.3,2,0.4l-0.2-1.1
	c2.5-0.7,5-1.4,7.5-2.2C833.6,92.4,834.3,92.4,835,92.3z"/>
<path d="M1142.7,92.7l-0.3,0.9c0.9,0,1.8,0,2.7,0c1.3,0.7,2.6,1.4,3.9,2.1l1.3-0.3l0.2,1.4c0.7-0.1,1.3-0.3,2-0.4l-0.1,0.9
	c1.8,0.9,3.3,1.8,4.8,3.1l1.3,0.1l-0.1,0.7c1.3,1,2.5,2.2,3.7,3.2l0.8,0.3c1.5,2.2,3.2,4.3,4.9,6.4c1.2,1.9,2.3,3.8,3.5,5.7
	c0.5,1.3,0.9,2.6,1.3,3.9l1-0.1l-0.1,1.4c0.5,1.8,0.9,3.7,1.3,5.5l0.9,0c-0.1,0.5-0.1,1-0.2,1.5c0.4,1.7,0.8,3.4,0.9,5.1
	c0.2,9,0.5,17.9-1.2,26.7l-0.6-0.4c-0.3,1.6-0.7,3.2-1.1,4.8l0,1.4l-1.5,0l0.5,1.9l-1.4,0.2l0.5,1.9h-0.9c-2.1,4.8-5.6,9.2-9.4,12.7
	c-1.3,1-2.5,2-3.8,3l-1.3,0l0.2,1.1c-1.1,0.4-2.2,0.8-3.3,1.2l0.2,0.7c-1.7,0.5-3.4,1-5.1,1.5l0.3,0.7c-2.1,0.4-4.3,0.9-6.4,1.2
	l0.3,0.7c-4.6,0.4-9,1.2-13.6,1.1c-4.6,0.1-9.1-0.7-13.7-1.1l0.3-0.7c-2.4-0.4-4.8-0.9-7.2-1.4l0.1-1.2l-1.9,0.6l-0.2-1.4l-2,0.4
	l0.1-0.9c-5.2-2.1-8.8-5.9-12.5-9.9c-3.3-3.7-5.3-8.5-7.4-12.9c-0.4-1.9-0.9-3.8-1.3-5.7l-0.6,0.4c-0.1-2.3-0.2-4.6-0.9-6.8
	c-0.4-6-0.3-11.9-0.2-17.9c0.1-4.9,1.9-9.9,3.2-14.7l0.6,0.2c0.4-1.7,0.9-3.4,1.3-5.2l1.2,0.2l-0.5-2l1.3-0.1l0-1.3
	c1.3-1.4,2.4-2.9,3.6-4.3l0.2-1.4l1.3,0.1l-0.2-2l2-0.1l0.1-2.1l2,0.2l-0.2-1.1c0.9-0.5,1.7-1.1,2.6-1.6c3.2-2.8,6.4-4.5,10.4-5.9
	l0.2-0.9l1.3,0.2c1.3-0.4,2.5-0.8,3.8-1.1l-0.3-0.5C1124.4,91.1,1133.6,91,1142.7,92.7z"/>
<path d="M568,92.2c2.8,0,5.4,0.8,8,1.6c1.2,0.3,2.3,0.7,3.5,1l-0.1,1.1l2-0.5l0.2,1.3l1.9-0.4l-0.1,1c1.5,0.9,3,1.8,4.5,2.7
	c1.2,1,2.4,2,3.7,2.9l0,0.2c4.4,3.6,7.8,8.3,10.4,13.3l0.7,0.3c-0.1,0.7-0.2,1.3-0.4,2l1.5-0.1l-0.1,1.4c0.4,1.2,0.8,2.5,1.2,3.7
	l0.6-0.3c0.6,2.8,1.1,5.6,1.4,8.4l0.8-0.4c0.4,7.5,0.4,15,0.1,22.5l-0.9-0.3c0,3.5-0.6,6.9-1.3,10.3l-0.5-0.2
	c-0.4,1.2-0.8,2.5-1.2,3.7l0.3,1.2l-1,0.1c-0.6,1.5-1.3,3-2,4.4c-3.2,5.4-6.7,9.3-11.8,13.1c-3,2-6.1,3.8-9.6,4.9l0.3,0.4
	c-3.9,0.8-7.8,2.4-11.8,2.4c-7.2,0.2-14.4,0.1-21.6-0.2l0.3-1c-1.2-0.1-2.5-0.1-3.7-0.2c-1.2-0.4-2.4-0.8-3.6-1.1l0.1-1.1l-1.4,0.5
	c-2.3-1.3-4.6-2.7-6.9-4c-2.2-1.7-4.3-3.6-6.4-5.5c-1.2-1.6-2.4-3.1-3.6-4.7l-0.4,0c-1.1-2.2-2.3-4.3-3.5-6.5
	c-0.6-1.3-1.1-2.6-1.6-3.9c-0.7-2.4-1.4-4.7-2.1-7.1c0-0.9,0-1.9-0.1-2.8l-1,0.4c-0.3-8.8-0.3-17.5,0-26.4l0.7,0.4
	c0.3-1.6,0.6-3.2,1-4.7c0.1-0.8,0.2-1.7,0.2-2.5l0.8,0.1c0.4-1.7,0.9-3.5,1.3-5.2l1.1,0.2c-0.2-0.7-0.3-1.4-0.4-2.1l1.4-0.2
	l-0.5-1.8l1,0.1c1.8-3.5,4.2-6.6,6.8-9.5c1.4-1.3,2.8-2.5,4.2-3.8c1.7-1.2,3.4-2.4,5-3.7l1.4,0.1l-0.1-1.4l2,0.2l0.2-1.3l1.9,0.5
	l-0.1-1.2c2.4-0.6,4.7-1.2,7.1-1.5l-0.3-0.7C554.2,92.1,561.1,92.1,568,92.2z"/>
<path class="st0" d="M708.7,94.5l-0.3,0.8c1.8,0.5,3.5,1,5.2,1.4l-0.1,1.7l2.1-0.1l0,2l2,0l0.2,1.4c1,1.4,2,2.8,3,4.2l-0.6,1.5
	l1.2-0.2c0.5,3.2,1.1,6.5,2.1,9.6c0.5,18.5,0.3,37.1,0.1,55.7l-1-0.4c0,1.7,0,3.4,0,5.2l-0.5,0.1c-1.6,5-4.3,9.2-9.3,11.4l0,0.4
	c-7,1.7-14.2,1.5-21.2-0.1l0.2-0.5c-4.8-2.1-6.6-4.5-8.4-9.3l-0.5,0c-0.3-1.3-0.6-2.5-0.9-3.8c-0.1-1.1-0.2-2.2-0.3-3.4l-0.9,0
	c-0.3-16.8-0.4-33.6-0.1-50.4c-0.1-4.7,1.8-8.9,2.2-13.6l0.5,0.3c0.7-2.5,1.6-4.7,3.2-6.7l0-1.4l2.1-0.1l-0.2-1.5
	c0.6-0.4,1.2-0.9,1.8-1.3l1.3,0.2l0.1-1.5l1.3,0.3C698,93.2,702.9,94.7,708.7,94.5z"/>
<path class="st0" d="M982.9,93.7c2.1-0.2,4.3-0.4,6.4-0.1c1.6,0.6,2.9,1.8,4.2,2.8c0.4,1.1,0.7,2.2,1.1,3.3l0.8-0.2
	c0.1,0.8,0.2,1.7,0.3,2.5c0.4,1.5,0.7,3.1,1.1,4.6l0.7-0.3c0.1,2.2,0.2,4.4,0.3,6.6c1,3.7,0.7,7.3,0.8,11.1c0.2,16.7,0,33.3,0.1,50
	c0.1,4-0.6,7.8-1.3,11.7l-1.2-0.2l0.5,1.9l-1.4,0.2l0.3,1.6c-1.1,0.5-2.2,1-3.3,1.5l0.2,1.2l-1.9-0.7l0,1.2c-1.5,0-3.1-0.1-4.6-0.1
	c-1.4-0.5-2.7-1-4-1.5c-1-1.1-1.9-2.2-2.8-3.3l-0.7,0l0-1.3c-0.4-1.3-0.8-2.5-1.1-3.8l-0.5,0.3c-0.3-1.6-0.6-3.2-1-4.8
	c-0.2-3.9,0.1-8.1-0.7-11.9c-0.4-2-0.5-4-0.5-6c0-11,0-22,0-33c-0.1-3.1,0.9-5.9,1-9c0.1-2.8,0.1-5.7,0-8.5l0.8-0.1
	c0-1.7,0.1-3.4,0.1-5.1l1,0.4c0.1-0.9,0.1-1.8,0.2-2.6c0.4-1.2,0.8-2.4,1.2-3.7l0.3,0.1C980.2,96.8,981.5,95.2,982.9,93.7z"/>
<path class="st0" d="M413.2,96.3c3.1-0.6,5.5-0.6,8.6,0.1c1.3,0.1,2.6,0.1,3.9,0.1l-0.4,0.7c1.9,0.2,3.8,0.6,5.7,1.1
	c0.8,0.1,1.6,0.3,2.5,0.4l0.1,1.1c4.7,2.2,7.7,4.8,10.7,9.1c0.7,1.3,1.5,2.5,2.2,3.8c0.5,1.2,0.9,2.5,1.4,3.7l0.7,0.1
	c0,1.1,0,2.1-0.1,3.2l1.1-0.4c0.1,0.9,0.1,1.9,0.2,2.8c0.4,2.2,0.7,4.4,1,6.6l0.8-0.3c0.2,10,0.2,20,0,30.1l-0.8-0.3
	c-0.2,2.2-0.6,4.4-1,6.6c0,0.6,0.1,1.2,0.1,1.7l-0.9-0.3c-0.4,2.1-0.9,4.2-1.3,6.2l-0.6-0.1c-0.7,1.9-1.6,3.8-2.6,5.5
	c-2.2,2.8-4.6,5.1-7.4,7.2c-0.5,0.1-0.9,0.1-1.4,0.1l0,1.2l-2-0.5l0.1,1.3c-0.8,0.1-1.7,0.2-2.5,0.3c-1.5,0.4-3.1,0.7-4.6,1.1
	l0.3,0.7c-6.1,0.1-12.2,0.1-18.2-0.1l0.4-0.8c-2.1-0.4-4.3-0.9-6.5-1.3l0.2-1.1l-2,0.5l-0.1-1.3l-2,0.4l0.1-1.4l-1.5,0.1
	c-2.9-3.2-6.2-5.8-8-9.9l-0.8,0.1c0.1-0.5,0.1-1,0.2-1.5c-0.4-1.2-0.9-2.5-1.3-3.7l-1.3,0c-0.1-2-0.2-4-0.3-6.1l-1,0.3
	c0-1.3-0.1-2.5-0.1-3.8c-0.4-1.9-0.8-3.8-0.9-5.8c-0.2-7.8-0.1-15.7,0-23.5l0.8-0.1c0-2.1,0-4.1,0-6.2l0.8,0.4
	c0.3-1.6,0.6-3.2,1-4.8c0.1-0.9,0.2-1.7,0.3-2.6l0.7,0.2c0.4-1.3,0.8-2.5,1.3-3.8l-0.3-1.2l1.3,0.1c0.5-1.4,0.9-2.7,1.4-4.1l1.7-0.1
	l-0.1-1.5c0.8-0.7,1.6-1.5,2.4-2.2c1.5-1.3,3.1-2.6,4.7-3.8l0-0.9l1.9,0.5l0.2-1.4l2,0.4l-0.1-1.4c0.5,0.1,1,0.1,1.6,0.1
	C407.7,97.5,410.4,96.6,413.2,96.3z"/>
<path class="st0" d="M840.4,94.6c3.1-0.2,6.2-0.1,9.2-0.1l-0.2,1.4l1.7-0.6c2.6,2.4,4.6,4.8,5.8,8.2l0.6-0.1
	c0.1,0.8,0.1,1.7,0.2,2.5c0.4,1.2,0.7,2.5,1,3.7l0.7-0.3c-0.1,4.3,0.9,8.4,1.1,12.6c0.1,14.3,0,28.7,0.1,43c0,4.4,0.2,8.6-0.9,12.8
	c0,0.9-0.1,1.9-0.1,2.8l-0.8-0.3c-0.5,1.7-1,3.4-1.4,5.2l-1.7,0l0,2.1l-2.1-0.1l-0.1,1.8c-0.9,0.1-1.7,0.2-2.5,0.4
	c-4.2,1.2-8.6,1.2-12.8-0.1c-0.6,0-1.1,0-1.7,0l0.1-0.7c-2.8-1.8-4.1-3.3-5.4-6.4l-0.5,0.2c-0.4-2.5-0.9-4.9-1.3-7.4l-0.7,0.4
	c-0.3-20.2,0.1-40.4-0.2-60.5c0.3,2.1,0.5,4.3,0.8,6.4c0.1-3.2,0.2-6.3,0.6-9.5c0.5-2.5,1.1-4.9,1.8-7.4l0.3-0.2
	c0.9-2,1.8-3.9,2.7-5.9l1.6-0.1l0-1.6c1-0.5,2-1.1,2.9-1.6L840.4,94.6z"/>
<path class="st0" d="M1127.5,94.4c1.4-0.1,2.7-0.1,4.1-0.1c1,3,1.1,6.1,1.2,9.2l0.8-0.3c-0.1,4.3,1,8.5,0.9,12.8
	c0.1,20.3,0,40.7,0,61c0.1,3.6-0.6,7.1-1,10.7l-0.8-0.1c-0.1,1.3-0.2,2.7-0.3,4c-1.6,0-3.2-0.1-4.8-0.1l0.3-2.1l-1.1,0.2
	c-0.2-2.2-0.6-4.3-1.1-6.5c-0.4-15.7-0.2-31.4-0.3-47.1c0.4-13.4-0.8-26.4,1.3-39.7l1.1,0.3L1127.5,94.4z"/>
<path class="st0" d="M548.7,97.8l-0.3-1.1c1.9-0.3,3.8-0.6,5.7-1c4.8-0.3,9.6-0.1,14.4-0.1c0.2,0.7,0.4,1.3,0.6,2l0.3-1.5l2.3,0.3
	l-0.1,1.3l1.9-0.7l0.3,0.8c4.6,1.9,7.7,5.3,10.9,9l-0.2,1.6l1.4-0.1l-0.2,1.4c0.4,1.2,0.9,2.4,1.3,3.6l0.6-0.2
	c0.4,2.1,0.9,4.2,1.2,6.4l0.8-0.2c0,6.3,1.5,12.3,1.2,18.6c-0.3,6.9,0.6,14.2-0.8,21c-0.2,2.5-0.2,5-0.3,7.5l-0.8-0.1
	c-0.3,1.6-0.6,3.1-1,4.6c-0.1,0.9-0.2,1.7-0.2,2.6l-0.7-0.1c-1.7,6.2-6,10.7-11.5,13.8c-3.9,1.2-7.4,2.6-11.6,2.4
	c-4.4,1.1-8.7-0.5-13.3-0.3l0.2-0.6c-6.3-1.2-11.3-4.3-14.8-9.8c-0.8-1.3-1.6-2.6-2.4-3.9l0.4-1.6l-1.3,0c-0.1-0.8-0.2-1.7-0.2-2.5
	c-0.4-1.6-0.7-3.2-1-4.8l-0.7,0.3c-0.1-1.2-0.2-2.5-0.3-3.8c-0.7-3.5-0.8-7-0.8-10.6l-1,0.3c0.1-6.1,0.1-12.1,0-18.2l0.9,0.4
	c0-3.9,0.1-7.8,0.8-11.6c0.1-1.3,0.2-2.6,0.2-3.8l0.7,0.4c0.2-1.6,0.5-3.1,0.8-4.6c0.9-2.2,1.9-4.4,2.7-6.6h0.9l0-1.4
	c2.5-3.2,5-6.2,8.7-8l0-0.9l1.9,0.5l0.1-1.4C547.2,97.5,548,97.7,548.7,97.8z"/>
<path class="st0" d="M132,97.4c5.2,0.1,10.2-0.5,15,1.1c0.5-0.1,1.1-0.1,1.6-0.2l-0.2,0.9c1.2,0.4,2.4,0.8,3.6,1.2
	c0.6,0,1.1,0,1.6,0l-0.1,0.7c7.6,3.1,12.9,8.8,17.9,15.1c0,0.4,0.1,0.9,0.1,1.3l1.2,0.1l-0.1,1.3c1.8,1.3,1.8,2.6,2.2,4.7l0.5-0.1
	c0.4,2,0.9,3.9,1.5,5.9c1.9,6.3,0.6,13.8,0.8,20.4l-0.7-0.3c-0.4,3.1-1.4,5.8-2.5,8.7c-1.1,1.9-2.2,3.9-3.3,5.8
	c-0.6,0.9-1.2,1.8-1.9,2.6l-0.2,0.1c-2,2.8-4.5,5.1-7,7.5c-1.8,1.2-3.6,2.3-5.8,2.8c0.8,0.2,1.6,0.4,2.3,0.7l-3,0l-0.1,1.2l-1.8-0.4
	l-0.3,1.6l-1.7-0.6l-0.1,1c-3.3,1.1-6.7,2.2-10.2,2.4l0.2,0.8c-2.2,0-4.4,0.1-6.6,0.1c-4.3,0.1-8.5-1.5-12.7-2.1l0.2-0.7
	c-1.2-0.2-2.4-0.4-3.6-0.6c-1.9-1.1-3.9-2.3-5.8-3.5c-0.9-0.5-1.8-0.9-2.7-1.4l0.1-0.4c-3.2-2.4-5.8-5.4-8.8-8l0.1-1.4l-1,0.2
	c-0.5-0.8-1-1.8-1.3-2.8l-1.2-2.2l-0.9-0.2c0.1-0.6,0.2-1.3,0.3-1.9l-1.5,0l0.2-1.4c-0.4-1.2-0.9-2.4-1.3-3.6l-0.6,0.2
	c-1.8-8-1.5-16.6-0.7-24.8c1.1-2.5,2-5.1,2.8-7.7l1,0.2l-0.3-2l1.3-0.2l-0.4-1.9l0.9,0.1c2.6-5,7-9,11.3-12.5l0-0.8l1.3,0
	c1.7-1.7,3.5-2.4,5.7-3.1l0.1-1l1.8,0.5l0.3-1.3l2,0.5l-0.2-1.1C125,98.2,128.4,97.3,132,97.4z"/>
<path class="st0" d="M281.8,98.4l0,0.8c2.9,0.1,5.6,0.4,8.4,1.4c1.5,1.8,3.3,1.8,5.5,2.1l-0.2,0.5c1.6,1.1,3.2,2.3,4.8,3.5l1.1,1.1
	c1.2,1.6,2.4,3.2,3.5,4.8l0.6-0.1c0.4,1.3,0.8,2.7,1.3,4.1l1.2,0.1l-0.3,1.2c0.4,1.3,0.9,2.5,1.2,3.8l0.5-0.3
	c0.3,1.9,0.7,3.7,1.1,5.6c0,0.9,0.1,1.9,0.1,2.8l1-0.4c0.3,9.8,0.2,19.5,0,29.3l-0.8-0.3c-0.3,2.8-0.9,5.5-1.4,8.2l-0.7-0.1
	c-0.4,1.5-0.8,2.9-1.1,4.3l-0.6-0.1c-0.8,2.1-1.7,3.9-3.2,5.6l-0.1,0.9c-0.8,0.7-1.6,1.4-2.4,2.1c-2.6,2.4-5.4,4.4-8.7,5.7l0,0.7
	l-3-0.2l-0.1,0.8c-2.6,0.1-5,0.6-7.5,1.1c-4.9,0.5-9.8,0.1-14.7,0.1l0.4-0.9c-2.8-0.1-5.6-0.6-8.4-1.2l0.1-0.7
	c-1.5-0.5-3-1.1-4.5-1.6c-3-2.2-5.8-4.6-7.9-7.7l-0.8,0l0.4-1.9l-0.9-0.1c-0.7-1.5-1.5-3.1-2.3-4.6l0.4-1.6l-1.2,0.2
	c-0.2-1.5-0.3-3.1-0.6-4.6c-0.5-0.9-0.9-1.8-1.4-2.8c-0.1-3.5-0.6-6.8-1-10.3c-0.2-5.2,0-10.3-0.1-15.5l0.7-0.1
	c0-3.7,0.4-7,1.5-10.5c0.3-1.5,0.6-3,0.9-4.5l1.1,0.2l-0.5-2l1.4-0.3l-0.6-1.8l1-0.1c1.7-4.2,4.6-7.4,7.9-10.4
	c1-0.7,2.1-1.4,3.1-2.2c1.4-0.6,2.9-1.1,4.3-1.7l-0.1-0.6c3.1-0.7,6.3-1.3,9.4-2.1c0.8,0,1.6,0,2.5-0.1
	C275.4,98.3,278.6,98.4,281.8,98.4z"/>
<text transform="matrix(1 0 0 1 123.7923 252.1284)" class="st1 st2">2            3           4             5           6            7            8           9</text>
</svg>
