<?xml version="1.0" encoding="utf-8"?>
<!-- Generator: Adobe Illustrator 26.0.0, SVG Export Plug-In . SVG Version: 6.00 Build 0)  -->
<svg version="1.1" id="Layer_1" xmlns="http://www.w3.org/2000/svg" xmlns:xlink="http://www.w3.org/1999/xlink" x="0px" y="0px"
	 viewBox="0 0 664 548" style="enable-background:new 0 0 664 548;" xml:space="preserve">
<style type="text/css">
	.st0{fill:#676767;}
	.st1{fill:#121212;}
	.st2{fill:#C9C9C9;}
	.st3{fill:#8B8B8B;}
	.st4{fill:#404040;}
	.st5{fill:#FFFFFF;}
	.st6{fill:#A7A7A7;}
</style>
<path class="st0" d="M317.7,41.3c0.7,0.2,1.4,0.4,2.1,0.6c1.1,4,2.8,7.5,2.9,11.7c0.8,0.1,1.6,0.2,2.3,0.3c-2.3,1-4.4,2.2-6.5,3.5
	c1.6,2.3,2.8,4.7,3.6,7.4c-2.3-1.8-4-4.3-5.1-7.1c0.3-1.3,1.6-2.3,2.4-3.3C319.6,50,318.3,45.8,317.7,41.3z"/>
<path class="st1" d="M325.1,54l0.9,0c1.1,5.1,0,10.3,1.2,15.4l-0.7,0.1c-0.8,0.1-1.6,0.1-2.5,0.2c-0.4-1.5-0.3-2.9-1.2-4.2l-0.6-0.5
	c-0.8-2.7-2.1-5.1-3.6-7.4C320.7,56.2,322.8,54.9,325.1,54z"/>
<path class="st2" d="M325.9,53.9l2.5,0c0,3.7-0.2,7.5-0.4,11.2c3.5-0.5,7-1.5,10.6-2.1c3.6,2,0,5.3-2.9,5.3l0.1-3.2
	c-2.5,0.5-4.8,0.3-6.6,2.3c1.3,0.2,2.6,0.5,3.9,0.6c-1.4,1.3-2.8,2.6-4.3,4c7.2,1.1,14.6,0,21.5,2c-4,0.7-7.7,0.9-11.8,0.7
	c-8.6-0.4-17.1,0.4-25.7-0.3c3.4-3.2,9.2-3.9,13.6-5.1l0.7-0.1C325.9,64.2,327,59,325.9,53.9z"/>
<path class="st3" d="M322.8,65.4c0.9,1.3,0.8,2.7,1.2,4.2c0.8-0.1,1.6-0.1,2.5-0.2c-4.4,1.2-10.2,1.9-13.6,5.1
	c8.5,0.7,17.1-0.1,25.7,0.3c4,0.2,7.8,0,11.8-0.7c4.5,0.6,9,0.9,13.4,1.6c46.1,5.8,90.4,24.2,125.5,54.9
	c9.3,8.6,18.5,17.7,26.1,27.8c16.4,21.2,28.2,46,33.8,72.2c0.7,3.4,1.6,6.6,2.9,9.8c-0.6,2.3-0.5,4.4-0.2,6.7
	c0.4-1.7,0.7-3.4,0.9-5.1c1.2,2.5,2.1,5,2.7,7.7c-3.5,1-2,3.2-2.4,6c0.9-0.2,1.7-0.4,2.6-0.6c-1,2.4-3,4.8-2.9,7.4
	c-0.3,8,0.7,16.7-0.9,24.5c-0.7,3.6-1.1,7.1-1.4,10.8c-5.3,34.3-20.1,66.1-41.2,93.5c-2.4,2.9-4.5,5.8-6.2,9.2
	c-4.7,4.9-8.9,10.2-13.8,14.9c-5.2,5.4-11.1,10-16.3,15.3c-4.9,3.2-9.3,7.1-14.1,10.5c-9.2,6.5-18.6,12.5-28.6,17.7
	c-4.6,2.3-8.4,4.9-13.5,6c-2.1,0.4-4.2,0.9-6.2,1.4c0.6,0.6,1.3,1.3,1.9,2c-0.9-0.3-3.9,0.1-2.7,1.6c0.9,0.6,1.9,1,3.1,1.2
	c-2.6,0.5-5.3,1-7.9,1.5c0-0.8,0-1.6,0-2.5c-3.8,0.9-7.3,2.5-10.8,4.3c-9.5,3.3-19.8,4.5-29.6,6.8c-5.7,1.4-11.3,0.7-17,1.6
	c-4.8,0.7-9.5,1.5-14.4,1.5c-7.1,0.1-13.8-1.9-20.9-1.9c-5.3,0-10.6-0.3-15.8-1.3c-25.5-3.7-50.8-11.2-73.7-23.1
	c-16.9-8.3-32.5-19.1-46.4-31.8c-5.9-5.9-12-11.6-17.2-18c-5.2-6.1-9.9-12.9-14.3-19.6c-4.9-7.4-8.7-15.9-12.7-23.9
	c-0.7-0.4-1.3-0.9-2-1.3c-0.1-2.2-0.1-4.4-0.2-6.5l-0.6,0.2c-1.2,0.4-2.4,0.8-3.6,1.2c-0.7-2.4-1.5-4.8-2.1-7.2
	c0.9,0.1,1.7,0.1,2.6,0.2c-0.3-3,0-5.7-1.6-8.3c-0.1-0.9-0.2-1.7-0.3-2.6c-0.5-0.9-1-1.7-1.5-2.6c-1.3-2.9-2.3-5.8-2.6-9
	c-0.8-9.7-3.6-18.8-3.3-28.6c0.2-4.8-0.4-9.5-0.7-14.3c1.1-7,0.5-13.9,1-20.9c2.3-19.5,6.9-38.7,14.5-56.8
	c18.3-44.9,53.1-83.1,95.4-106.8c11.4-6.4,23.3-11.6,35.5-16.1c6.3-2,12.7-3.6,18.9-6c2.3-1,4.6-0.6,7-0.4c2.3,0.4,4.3,0,6.6-0.5
	c-1-0.4-1.9-0.8-2.9-1.2c-1.1-0.2-2.3-0.3-3.4-0.5c5.9-2.2,12.1-3,18.1-4.9c3.7-1.2,7.6-1.8,11.4-2.5
	C320.3,68.9,321.4,66.8,322.8,65.4z"/>
<path class="st0" d="M335.7,65.1l-0.1,3.2L333,68c-1.3-0.2-2.6-0.4-3.9-0.6C331,65.4,333.2,65.6,335.7,65.1z"/>
<path class="st4" d="M306.8,72.3c1.1-0.5,3.4,0.2,2.5,1.7C307.9,75.6,304,74,306.8,72.3z"/>
<path class="st4" d="M298.1,74.7c1.1-0.5,3.4,0,2.4,1.6C299,78,295.2,76.6,298.1,74.7z"/>
<path class="st4" d="M288.7,76.5c1.1,0.2,2.3,0.3,3.4,0.5c1,0.4,2,0.7,2.9,1.2c-2.2,0.5-4.3,0.9-6.6,0.5L288.7,76.5z"/>
<path class="st1" d="M284.7,80c-0.2,5.7,1.6,10.5,3.4,15.8c-1,0-2,0-3.1-0.1c0-2.6,0-5.3,0-7.9c-2-1.8-2.9-3.2-3.1-5.9
	C282.5,80.7,283.6,80.6,284.7,80z"/>
<path class="st5" d="M313.6,82.8c8.6-1.6,17.2-1.1,25.9-1c-1.2,0.3-2.4,0.5-3.6,0.7c-1,0.1-1.9,0.2-2.9,0.3
	c-1.2,0.4-2.3,0.8-3.5,1.1c-3.2-0.2-6.4-0.5-9.6,0.2c-5.6,1.2-11.2,0.2-16.8,1.5c-5,1.2-10.1,1.4-15,2.6c0.2-1,0.4-2,0.6-3
	C297.1,85.4,305.3,83.3,313.6,82.8z"/>
<path class="st0" d="M336,82.5c2.2,0.2,4.3,0.4,6.5,0.7c-1.6,3.4-4.8,3.4-7.9,4.7c0.3,2.1,0.6,4.2,0.8,6.3c-1.5-2.6-2.4-5.5-3.3-8.4
	c-1.4,0-2.8,0.1-4.2,0.1c1,4.7,1.4,9.2,1.4,13.9c1.4,0.1,2.7,0.2,4,0.3c0.7-0.5,1.3-0.9,2-1.4c-0.2,2-0.3,4-0.4,6
	c-0.8-0.8-1.7-1.6-2.5-2.4l-0.3-1.2c-1.3,0-2.7-0.1-4-0.1c0-2.9,0-5.9-0.1-8.9c-10.1-0.5-19.9,1.2-29.6,4c-1.9,0.7-3.8,0.4-5.7,0.2
	c0.5-0.9,0.9-1.7,1.4-2.6c3-1.7,6.8-2.4,10.2-3.2c5.9-1.3,11.6-3.3,17.7-4.2c2.7-0.4,5.2-1.2,7.6-2.5c1.2-0.3,2.4-0.7,3.5-1.1
	C334.1,82.7,335.1,82.6,336,82.5z"/>
<path class="st5" d="M359.8,85.3c3.5,0.8,7.1,0.4,10.5,1.7c10.6,2.5,21.1,5,31.1,9.4c22.2,8.4,42.9,21.4,60.8,36.9
	c4.9,4.6,9.6,9.4,14.4,14.1c21.6,23.4,37,52.4,43.8,83.5c1.3,3.6,1.6,6.3,1.1,10.2c-1.2-3.5-1.4-7.3-2.6-10.9
	c-0.8-4.5-2.7-8.6-2.9-13.2c-0.6-0.8-1.3-1.7-1.9-2.6c-0.1-1.3-0.2-2.5-0.3-3.7c-1.7-3.2-3-6.6-4.4-10
	C487.7,150.2,443,111.4,391,94.2c-4.7-1.7-9.5-2.4-14-4.7c-2.6-0.2-5.2-0.2-7.6-1.3c-3.8-1.7-8-0.8-12-2.2c-4.6-1.5-9.1-1-13.8-1.5
	C348.5,82.7,354.9,83.5,359.8,85.3z"/>
<path class="st5" d="M262.5,85c-12.3,4.5-24.2,9.6-35.5,16.1c-42.3,23.6-77.1,61.8-95.4,106.8c-7.6,18.2-12.1,37.3-14.5,56.8
	c-0.6,7,0.1,13.9-1,20.9c0.3,4.8,1,9.4,0.7,14.3c-0.3,9.8,2.5,18.9,3.3,28.6c0.2,3.2,1.2,6.1,2.6,9l-1.3,2c0.4,1,0.7,2,1.1,3
	l0.8-0.5c0.4,1.7,0.8,3.4,1.2,5.1c-0.3,1.2-0.6,2.5-0.9,3.7c0.6,2.5,1.4,4.8,2.1,7.2c0.2,2.1,0.2,4.3,0.3,6.4c-3.7-0.4-7.3-1-11-1.4
	c-0.9,2.4-1.5,4.8-1.5,7.4l0.8,1.3l0.7,1.1c-4.2-0.8-8.9,0.6-13.1,1c0-1.4,0-2.7,0-4.1l2.1-0.4l-1.9,0.6c0.8,0.8,1.5,1.7,2.3,2.5
	c2.7-0.4,6.3,0,8.6-1.6l0.1-2.3l-3.5,0.1c1.6-1.8,3-3.9,4.9-5.4c3.2-1.1,7.1-0.6,10.5-0.8c-0.6-4.3-1.5-8.5-2.8-12.7
	c-1.9-6.3-1.7-12.7-3.1-19.2c-2.9-15.5-4.7-31.2-4.4-47.1c0.5-12.9,1.2-25.5,4.1-38c2.7-13.5,6.8-26.6,12.3-39.3
	c5.9-14.4,13.4-28.5,22.9-40.9c6.8-10.3,14.9-19.4,23.8-27.9c17.7-18.8,39.3-33.2,62.5-44.3C247.8,89.7,254.6,86.3,262.5,85z"/>
<path class="st1" d="M327.9,86c1.4-0.1,2.8-0.1,4.2-0.1c0.8,2.9,1.8,5.7,3.3,8.4c0.6,1.1,1.3,2.2,1.9,3.3l-2,1.4
	c-0.7,0.5-1.3,0.9-2,1.4c-1.3-0.1-2.7-0.2-4-0.3C329.3,95.2,328.9,90.6,327.9,86z"/>
<path class="st5" d="M282,87.7c-0.1,0.8-0.2,1.6-0.3,2.3c-25.2,6-48.5,18.6-67.8,35.8c-12.1,11-22.9,23.2-31.6,37.1
	c-6.1,8.7-10.9,18.8-15.6,28.5c-3.4,6.9-5.5,14.2-8.4,21.3c-1.9,4.7-2.8,9.8-4.4,14.6c-1.8,5.1-2.2,10.4-3.7,15.5
	c-0.3,6.3-2.5,12.3-2.5,18.7c-0.2,11.4-0.3,22.7,0,34.1c0.1,3.9-0.4,7.4,1.1,11c1.5,3.6,0.8,7.5,2.1,11.1c0.7,1.9,1.1,3.7,1,5.7
	c-1.3-1.8-2.5-3.6-2.8-5.9c-0.7-6.9-2.6-13.4-2.9-20.3c-2-7.8-1.7-15.7-1.5-23.7c0.5-5.2,1.7-10.2,1.8-15.4
	c0.1-5.7,2.6-10.7,2.5-16.6c2.2-7.5,2.7-15.2,6.1-22c0.1-1.6,0.2-3.1,0.4-4.7c0.6-0.8,1.2-1.6,1.8-2.5c0.3-1.9,0.6-3.7,1.3-5.5
	c2.8-7.4,6-14.7,9.3-22c4.3-8.5,9.3-17.1,14.4-25.1c5-7.2,10.3-14.2,16.1-20.8c18.5-20.9,42.3-36.9,68.7-46.2
	c3.2-1.4,6.4-2.2,9.8-2.8C278.7,89.3,280.3,88.5,282,87.7z"/>
<path class="st3" d="M337,91.1c3-0.4,5.8-0.4,8.8,0.3c6.7,1.5,13.6,2.1,20.2,4.1c5.7,1.8,11.1,1.8,15.6,6.1
	c-14.6-4.7-28.8-8.8-44.3-8.3c0.6,1.5,1.2,3,1.8,4.5c-0.9,0.8-1.8,1.6-2.8,2.4c0.4,4.5,1.5,8.8,1.7,13.3c-0.7-0.1-1.5-0.2-2.2-0.3
	l-0.7-1.4c1.8,0.3,2.6-0.5,2.5-2.2c-1.2-2.3-2.7-0.5-2.9,1.3c-0.9-2.8-1.6-5.7-2.3-8.5c0.8,0.8,1.7,1.6,2.5,2.4c0.1-2,0.2-4,0.4-6
	l2-1.4c-0.6-1.1-1.3-2.2-1.9-3.3C335.9,93.2,336.4,92.2,337,91.1z"/>
<path class="st5" d="M328,92.3c0,3,0.1,5.9,0.1,8.9c1.3,0,2.7,0.1,4,0.1l0.3,1.2c0.7,2.9,1.4,5.7,2.3,8.5l0.4,0.9l0.7,1.4
	c0.7,0.1,1.5,0.2,2.2,0.3c-0.2-4.5-1.3-8.8-1.7-13.3c0.9-0.8,1.8-1.6,2.8-2.4c-0.6-1.5-1.2-3-1.8-4.5c15.5-0.5,29.7,3.6,44.3,8.3
	c4.6,2.2,9.2,4.1,13.7,6.4c16,7.9,30.4,18.9,42.7,31.7c26.4,27.3,43.3,62.6,51,99.6c1,5.3,0.3,10.5,2.5,15.6
	c0.3,4.8-0.2,9.3,1.5,13.9c0.3,4,0.3,7.9,0.3,11.9c-3.5-0.1-7-0.2-10.4-0.2l0.4,2.2l-0.9,0.3c-3.7,1-7.6,1.1-11.2,2.2
	c-2.2,0.5-1.5,3.3-2,4.9c3.5-0.3,6.6-0.8,9.9-1.9c1.8-0.5,3.5-0.9,5.3-1.4l-0.1,2.8c0.8-0.1,1.5-0.2,2.3-0.3c2.2-0.4,4.4-1,6.6-1.5
	c0.3,8.9-1.4,17.5-2.1,26.3c-3.6,26.1-11.2,51.3-24.5,74.2c-9.6,16.6-22.3,31.6-37.5,43.4c-2.7-2.7-5.5-3.7-9.2-4.6
	c-0.6,1.3-1.2,2.6-1.7,3.9c-0.1,2.3,0.4,4.5,1.1,6.7l1.4,0.5c-0.1,1.4-0.2,2.7-0.3,4.1c1.1,0.2,2.1,0.4,3.2,0.6
	c-4.1,0.2-8,0.5-11.9,1.7l0.4,1.1c-1.2-0.1-2.5-0.2-3.7-0.2l0.4,1.2c-1.7,0.1-3.4,0.2-5.1,0.4l1.2,0.7c-1.2,0.3-2.4,0.6-3.6,1
	l-2.1,0.1l1,1.2c-3-0.1-5.8,0.7-8.7,1.2l-1.3,0.1c-1.3,0.9-2.6,1.9-3.8,3c-1.5,0.1-3.1,0.3-4.6,0.4c-3.7,2.2-7.7,2.6-11.9,3.6
	c-10.5,2.2-20.5,1.9-31.2,2c-8.4,0-17,0.1-25.3-1c-28.3-4.5-54.9-17.9-75.6-37.7c-18.2-17-31.8-37.7-42-60.3
	c-0.8-1.9-0.9-4.2-1.3-6.2c2.8,0.1,5.7,0.3,8.5,0.3l0.4-1.4l0.3-1.2l0.1-0.4l0.3-0.2c0.8-0.6,1.6-1.1,2.5-1.7
	c3.1-0.7,6.1-1.3,9.2-1.9c0.2-1.1,0.3-2.2,0.5-3.3c-4.3,0.7-8.4,1.7-12.8,1.6l-1.9-0.8l-0.7-0.3c-0.8-0.2-1.6-0.4-2.4-0.5l-0.1,1.1
	c-1.6,0.8-3.2,1.6-4.7,2.7c-0.9,0.1-1.9,0.2-2.8,0.2c-1.6-5-2.5-10.1-4.3-15c-0.1-1.1-0.3-2.3-0.5-3.4c-0.3-2.5-1.3-4.4-2.6-6.5
	c-0.7-3.2-1.2-6.4-2.3-9.5c-1.8-4.9-1.7-9.7-2.7-14.8c-1.5-6.9-1.1-13.8-1.9-20.8c-0.3-10.3-0.5-20.6,0.6-30.8
	c0.2-4.8,0.4-9.4,1.3-14.1c2.7-20.7,8.2-40.9,17.2-59.8c6.1-12.5,13.5-24.8,23-35c12.1-14.2,27.5-25.6,44.4-33.4
	c8-3.2,16.7-7.5,25.4-7.8c0.9-0.6,1.8-1.1,2.7-1.6l1.8,0.2c2,0.2,3.8,0.5,5.7-0.2C308.2,93.5,318,91.8,328,92.3z"/>
<path class="st0" d="M337.6,109.7c0.2,1.7-0.6,2.4-2.5,2.2l-0.4-0.9C334.9,109.2,336.4,107.4,337.6,109.7z"/>
<path class="st0" d="M342.9,121.1l0.7,0.2c1.1,0.7,2.5,0.6,3.7,0.9l-0.4,1.1c-1.8,0-3.7,0.1-5.6,0.1c-1.2,3.8-1.5,7.3-1.3,11.3
	c2.8,0,5.6,0,8.4,0.3c-1.4,0.2-2.8,0.4-4.2,0.6c0.1,0.8,0.1,1.6,0.2,2.4l-1.1-0.1c-1.5-0.2-3-0.5-4.5-0.8c0.4-4,0.3-7.4-0.7-11.3
	l0.1-0.2C339.7,123.8,341.2,122.3,342.9,121.1z"/>
<path class="st1" d="M343.7,121.2c1.8-0.1,3.6-0.1,5.4-0.1l-1.1,2.2c0.9,0.2,1.8,0.4,2.7,0.5c-1.4,0.2-2.8,0.4-4.3,0.6l0.5-1.3
	l0.4-1.1C346.1,121.8,344.7,121.9,343.7,121.2z"/>
<path class="st1" d="M338.2,125.6c0.9,3.9,1.1,7.3,0.7,11.3c1.5,0.3,3,0.5,4.5,0.8c-1.6,0-3.3-0.1-4.9-0.1c-0.5-0.9-1.1-1.7-1.6-2.6
	c0-2.3,0.1-4.5,0.3-6.8L338.2,125.6z"/>
<path class="st1" d="M544.2,237.5c2.7-1.2,4.1-0.3,6.5,1c-3.5,1.1-7.1,1.3-10.5,2.2c-5,1.4-10,1.3-14.8,3.6
	c-1.2-0.6-2.5-1.2-3.7-1.9c2.5-0.7,4.6-1,7.3-0.5C533.8,238.3,539,239.7,544.2,237.5z"/>
<path class="st1" d="M551.9,240.4l0.7,1.6c-0.3,1.7-0.6,3.4-0.9,5.1C551.4,244.8,551.3,242.7,551.9,240.4z"/>
<path class="st1" d="M520.6,244.9c-9.5,1.9-19.4,3.2-28.7,6.2c0-0.9,0-1.7,0.1-2.6c5.3-0.8,10.4-3.1,15.8-2.6
	C512.3,244.1,515.9,241.8,520.6,244.9z"/>
<path class="st5" d="M523.8,245.5c0,3.3,0,6.7-0.2,10c-0.8-2.1-1.6-4.1-2.4-6.1c-0.2-1-0.5-1.9-0.6-2.9
	C521.7,246.1,522.8,245.8,523.8,245.5z"/>
<path class="st0" d="M555.3,249.7l0.5,2.6l-0.3,2.8c-0.9,0.2-1.7,0.4-2.6,0.6C553.3,252.9,551.8,250.7,555.3,249.7z"/>
<path class="st2" d="M555.8,252.2c0.9,2.7,1.8,5.2,2,8c-0.8-0.5-1.6-0.7-2.4-0.6c-0.5,1.3-0.6,2.6-0.2,4c0.5,2.7,1.1,5.1,2.6,7.5
	c0.1,2.1,0.4,4.3,0.7,6.4c0.3-2.3,0.4-4.7,0.8-7c3.9-0.9,8.2-0.5,12.2-0.6l1.5,0l-0.4,2.2c-4,0-8-0.4-12-0.7
	c0.9,4.8,3.3,8.7,0.3,13.3c-3.9-3.9-4.1-8.6-5.2-13.7c-3.4,5.1-1.5,13.2-2.3,19.2c-2.1,14.6-5.1,28.9-10.3,42.8
	c-8.2,22.7-20.3,43.7-35.2,62.7c-1.5,1.8-3.2,3.3-5,4.9c1.7-3.4,3.8-6.3,6.2-9.2c21.1-27.4,35.9-59.2,41.2-93.5
	c0.3-3.6,0.7-7.2,1.4-10.8c1.6-7.9,0.6-16.5,0.9-24.5c0-2.6,1.9-5,2.9-7.4L555.8,252.2z"/>
<path class="st1" d="M492.6,254.6l0.2-0.1c0.3,6.9,3.1,13.3,2.7,20.2c1.3,2,2.7,3.9,2.8,6.4c0.3,3.9,1.7,7.5,2.5,11.3
	c-0.6,0.7-1.3,1.4-2,1.9c-0.9-2.8-1.2-5.7-1.3-8.6c-2.1,0-4.1,0-6.2,0.1c1.7-1,3.4-2,5-3.1c0.3-0.6,0.7-1.3,1-2
	c-3.9,1.1-7.8,1.4-11.7,2.1c-0.9,1-1.7,2-2.4,3.1l0.6-0.9l-2,0.1l0.6-2.2l0.9-0.3l-0.4-2.2c3.5,0,7,0.1,10.4,0.2c0-4,0-7.9-0.3-11.9
	c-1.8-4.6-1.2-9.1-1.5-13.9L492.6,254.6z"/>
<path class="st1" d="M523.7,255.5l3-0.3c-0.9,4.2-2.5,7.9-1.7,12.4l0,0.1l0,1.5c-0.5-2.5-1.1-4.9-1.4-7.4l0-0.5
	C523.9,259.3,524.1,257.4,523.7,255.5z"/>
<path class="st0" d="M555.4,259.6c0.9,0,1.7,0.2,2.4,0.6l0.1,0.9c-0.6,1.4-1.6,2.2-2.7,2.5C554.8,262.2,554.9,260.8,555.4,259.6z"/>
<path class="st0" d="M570.7,260.8c0.3,1.1,0.6,2.1,0.9,3.2c1.4-0.3,2.8-0.5,4.3-0.8c1.3,0.2,2.5,0.5,3.8,0.7
	c-0.5,0.7-1.1,1.5-1.6,2.3c-1.6,0-3.1,0.1-4.7,0.1c-0.1,1.2-0.2,2.4-0.4,3.6l-1.5,0c-0.7-2.6-1.2-5.3-1.9-7.9
	c-3.8,2-7.6,4.2-11.6,5.9c-0.1,1.1-0.1,2.1-0.2,3.2c-1.5-2.3-2.1-4.8-2.6-7.5c1.2-0.3,2.1-1.1,2.7-2.5c0,1.6,0,3.1,0,4.7
	C562.6,265,566,260.8,570.7,260.8z"/>
<path class="st1" d="M523.6,261.2l0,0.5c0.4,2.5,0.9,5,1.4,7.4c-1,0.7-2,1.4-3,2.2c-0.3,2.5-0.2,5.1-0.1,7.7l3.8,1.2l-1,0.4
	c-1.8,0.1-3.7,0.1-5.5,0.1C519.4,274.3,520.7,267,523.6,261.2z"/>
<path class="st3" d="M586,262.1c-2.4,2-4.8,3.7-8,4.1c0.5-0.7,1.1-1.5,1.6-2.3c-1.3-0.3-2.5-0.5-3.8-0.7
	C579.3,262.3,582.4,261.6,586,262.1z"/>
<path class="st1" d="M569.6,261.9c0.7,2.6,1.2,5.3,1.9,7.9c-4,0.1-8.3-0.3-12.2,0.6c-0.4,2.3-0.5,4.7-0.8,7
	c-0.3-2.1-0.6-4.2-0.7-6.4c0.1-1.1,0.1-2.1,0.2-3.2C562,266.1,565.8,264,569.6,261.9z"/>
<path class="st1" d="M529,264c1.6,0,3.1,0.1,4.7,0.2c0.1,3.3,0.5,7.2-0.5,10.4l-2.7,1.4C530.8,271.5,530.7,268.1,529,264z"/>
<path class="st0" d="M525,267.5c1.3,0,2.6-0.1,3.9-0.1c0.3,3.2,0.9,6.5,0.7,9.7c-1,1.3-2.4,2.3-3.8,3.1l-3.8-1.2
	c-0.1-2.5-0.2-5.2,0.1-7.7c1-0.8,1.9-1.5,3-2.2c0,1.5-0.1,2.9-0.1,4.4c-0.6,1.3-1.1,2.7-1.6,4c1,0,1.9,0,2.9,0
	c0-3.4-0.1-6.6-1.1-9.8L525,267.5z"/>
<path class="st5" d="M525,267.6c1.1,3.2,1.1,6.5,1.1,9.8c-1,0-1.9,0-2.9,0c0.5-1.3,1.1-2.7,1.6-4c0-1.5,0.1-2.9,0.1-4.4L525,267.6z"
	/>
<path class="st1" d="M497.3,280.8c-0.3,0.7-0.7,1.3-1,2c-1.6,1.2-3.3,2.1-5,3.1c-1.7,0.9-3.2,2.2-4.6,3.5c-0.8,0.1-1.5,0.2-2.3,0.3
	l0.1-2.8l-2,0.2l0.7-1.1c0.7-1.1,1.5-2.1,2.4-3.1C489.4,282.2,493.4,281.8,497.3,280.8z"/>
<path class="st5" d="M523,282.9l0.7-1.1c0.3,6.2,0.8,13-0.9,19.1c-1.2,4.1-0.7,8.2-2.2,12.2c-1.3,3.7-1.4,7.6-2.7,11.3
	c-3.3,12.5-8.2,24.4-13.6,36.2c-10.9,21.6-25.1,41.5-42.2,58.7c-7.6,7-15.7,14.1-24,20.3c-0.7-0.2-1.4-0.4-2.1-0.6l-1-0.3
	c1.8-0.7,3.5-1.5,5-2.6c5.9-4.5,11.5-9.3,16.8-14.4c3.9-3,6.9-6,9.9-9.9c22.6-23.7,39.4-53,48.8-84.3c0.5-2.7,1.2-5.2,2.4-7.6
	c0.3-2.6,0.7-5.1,1.4-7.6c1.2-4.3,1.2-8.9,2.5-13.2C523.3,293.4,522.4,288.5,523,282.9z"/>
<path class="st5" d="M482.3,283l-0.6,2.2l2-0.1l-0.6,0.9l-0.7,1.1l2-0.2c-1.8,0.5-3.5,0.9-5.3,1.4l0-3.5c-2.7,0.7-7.1-0.2-7.7,3.5
	c2.5,0,5.1,0,7.6,0c-3.3,1-6.5,1.6-9.9,1.9c0.5-1.6-0.2-4.5,2-4.9C474.8,284.1,478.7,284,482.3,283z"/>
<path class="st0" d="M479.1,284.8l0,3.5c-2.5,0-5.1,0-7.6,0C472.1,284.6,476.5,285.5,479.1,284.8z"/>
<path class="st1" d="M179.6,317.7c0.1,0.8,0.2,1.7,0.4,2.5c-6.2,0.3-11.8,2.9-18,3.5l-0.3-2.3C167.7,320.5,173.5,319,179.6,317.7z"
	/>
<path class="st4" d="M161,322.7c0.4,4.7-7.3,2.9-9.5,1.5C154.1,322.9,158.2,321.4,161,322.7z"/>
<path class="st1" d="M144.8,325.1c2.4-1,4,0.1,6.2,1.2c-7.8,1.9-16,3-23.7,5.5c-2.7,0.9-3.7,0.3-5.9-1.3
	C129.2,328.7,137.2,327.6,144.8,325.1z"/>
<path class="st0" d="M183.4,324.2c1.2,2.1,2.3,4.1,2.6,6.5c-0.8-0.4-1.7-0.8-2.5-1.2c0,1.8,0,3.6-0.1,5.3c1-0.3,2-0.5,3.1-0.7
	c1.8,4.9,2.7,10,4.3,15l-1-0.2c-0.5-0.3-1.1-0.5-1.6-0.8c0.1,2.4,0.3,4.8,0.4,7.2c5-3.1,9.8-1.4,15.1-2.6l-0.3,1.2
	c-3.4,0-7.4-0.8-10.6,0.3c-0.9,3.6,0.9,8,1.5,11.6c-1.3,0.4-2.5,0.7-3.8,1.1c-3.4-13.5-6.2-27.1-9.2-40.7
	C181.8,325.6,182.6,324.9,183.4,324.2z"/>
<path class="st2" d="M154.3,327.6c1.4,5.7,3.3,11.3,4.9,17c-1.2,0-2.4,0-3.7,0c-1.6-5.5-3.2-11-4.7-16.5
	C151.9,327.9,153.1,327.7,154.3,327.6z"/>
<path class="st4" d="M183.4,329.5c0.8,0.4,1.7,0.8,2.5,1.2c0.2,1.1,0.3,2.2,0.5,3.4c-1,0.2-2,0.5-3.1,0.7
	C183.4,333,183.4,331.2,183.4,329.5z"/>
<path class="st1" d="M122.7,337.4c0.5,0.9,1,1.7,1.5,2.6c0.1,0.9,0.2,1.7,0.3,2.6c1.6,2.7,1.3,5.3,1.6,8.3c-0.9-0.1-1.7-0.1-2.6-0.2
	c0.3-1.2,0.6-2.5,0.9-3.7c-0.4-1.7-0.8-3.4-1.2-5.1l-0.8,0.5c-0.4-1-0.7-2-1.1-3L122.7,337.4z"/>
<path class="st1" d="M165.1,345.3c0.3,1,0.7,1.9,1,2.9c-2.8,4.6-2,9.2-3.2,14.7c-1.2-1.1-2.3-2.1-3.5-3.2c0.5-1.5,1.1-3.1,1.5-4.6
	c0.1-2.5,0.1-5,0.1-7.5l-1.8,0.4l0.3-1.6C159.4,344.4,163.9,345.6,165.1,345.3z"/>
<path class="st1" d="M200.7,345.6c1,2.2,2,4.4,3,6.6l-0.1,0.4c-5.4,1.3-10.1-0.5-15.1,2.6c-0.1-2.4-0.2-4.8-0.4-7.2
	c0.5,0.3,1.1,0.5,1.6,0.8l1,0.2c0.9-0.1,1.9-0.1,2.8-0.2c1.5-1,3.1-1.9,4.7-2.7l0.1-1.1C199.1,345.2,199.9,345.4,200.7,345.6z"/>
<path class="st1" d="M200.7,345.6l0.7,0.3l1.9,0.8c2.3,1.2,5.5,0.7,7.9,1.2l0.3,0.5c-2.8,0.8-7.7-0.8-7.6,3.6l-0.3,0.2
	C202.6,350,201.7,347.8,200.7,345.6z"/>
<path class="st3" d="M216.1,345.2c-0.2,1.1-0.3,2.2-0.5,3.3c-3.1,0.6-6.1,1.2-9.2,1.9c-0.8,0.5-1.6,1.1-2.5,1.7
	c-0.2-4.4,4.8-2.8,7.6-3.6l-0.3-0.5c-2.5-0.4-5.6,0-7.9-1.2C207.7,346.9,211.7,345.9,216.1,345.2z"/>
<path class="st5" d="M159.5,346.3l-0.3,1.6l1.8-0.4c0,2.5,0,5-0.1,7.5C158.4,351.6,158.2,350.4,159.5,346.3z"/>
<path class="st1" d="M152.6,349.7c0.9,0.1,1.8,0.1,2.7,0.2c-1.7,5.1-1.5,7.4,0.5,12.3c-1.3,0-2.6,0-3.8-0.1c-0.6-1.3-1.3-2.6-1.8-4
	C150.6,355.3,151.8,352.5,152.6,349.7z"/>
<path class="st0" d="M129.2,356.7c-0.2,2.2-0.3,4.4-0.4,6.6c0.7,0.4,1.4,0.9,2.1,1.3c-0.3,5.1,0.5,9.5,1.8,14.3
	c-0.8-0.1-1.5-0.3-2.3-0.4c-0.8-3.3-1.9-6.6-3-9.8c-1.5,0.5-2.9,1-4.4,1.5c2-1.6,3.9-3.3,5.8-4.9c-4.5-0.1-9-0.1-13.5-0.2
	c0.1,2.2,0.2,4.5,0.3,6.7l-1.5-0.3l-0.8-1.3c0-2.6,0.6-4.9,1.5-7.4c3.7,0.3,7.3,0.9,11,1.4c0-2.1-0.1-4.3-0.3-6.4
	C126.8,357.5,128,357.1,129.2,356.7z"/>
<path class="st4" d="M190,356.9c0.7,0.8,1.5,1.7,2.2,2.5c0.1,1.9,0,3.8-0.1,5.7C188.6,364.3,190.4,359.5,190,356.9z"/>
<path class="st5" d="M166.6,364.6c5.3,12.3,12.8,23.8,20.8,34.5c3.9,5.3,8.5,10,12.7,14.9c3.7,4.4,8.4,7.7,12.5,11.8
	c23.5,20.4,52.3,34.4,82.5,41.3c5.2,1.8,10.5,1.4,15.8,2.7c5.9,1.6,11.9,0.5,17.8,1.6c5.7,1,11.5,0.9,17.1-0.1
	c4.5-0.8,9-0.2,13.4-0.8c7.1-1.5,14.2-2.5,21.2-4.4c0.6-0.3,1.1-0.6,1.7-1c-0.1,0.7-0.1,1.5-0.2,2.2c-2.1,0.3-4.1,0.8-6.2,1.4
	c-3.9,1.5-8.1,0.6-12,2.3c-4.8,1.8-10.4,0.5-15.5,1.1c-7.2,1.1-14.7,1.2-21.9,0.1c-6.6-1-12.2,0.9-18.6-1.6c-3.7-1.4-7.5-0.4-11.1-2
	c-3.7-1.5-7.6-0.8-11.2-3c-2.8-0.3-5.1-0.9-7.6-2.2c-2.3-0.5-4.4-1.2-6.6-2.2c-3.7-0.9-7-2.3-10.4-3.9c-18.9-8-36.6-18.9-51.8-32.7
	c-9.5-7.7-16.7-16.8-24.2-26.4c-8.1-11.2-15.7-23.2-21.1-36C164.7,363.2,166.1,363.5,166.6,364.6z"/>
<path class="st1" d="M115.5,365.1c4.5,0,9,0.1,13.5,0.2c-1.9,1.6-3.9,3.3-5.8,4.9c-0.9,0.5-1.8,0.9-2.8,1.3
	c-1.5,0.2-3.1,0.3-4.6,0.4C115.7,369.6,115.6,367.4,115.5,365.1z"/>
<path class="st3" d="M104.1,369.1c1.9-0.3,3.8-0.5,5.6-0.7l3.5-0.1l-0.1,2.3c-2.2,1.6-5.9,1.2-8.6,1.6c-0.8-0.8-1.5-1.7-2.3-2.5
	L104.1,369.1z"/>
<path class="st3" d="M114.3,371.6l1.5,0.3c1.5-0.1,3.1-0.2,4.6-0.4l2.6-0.2c-2.9,1.4-4.9,4-8,1.4L114.3,371.6z"/>
<path class="st1" d="M419.6,383c1.4-0.1,2.9-0.2,4.3-0.2c-0.8,3.2-2,6.2-2.6,9.4c-0.1-0.8-0.2-1.7-0.4-2.5c-0.5,0.2-1.1,0.4-1.7,0.6
	C419.4,387.9,419.4,385.4,419.6,383z"/>
<path class="st4" d="M422.6,383.8c0.6,1.6-0.4,3.6-2.3,3.3C419.3,385.3,420.6,383.5,422.6,383.8z"/>
<path class="st1" d="M421,389.8c0.1,0.8,0.3,1.7,0.4,2.5c0,1.5,0,3-0.1,4.5l-1.7-1c-0.5-0.5-1-1-1.4-1.5l0,0
	c-2.4-0.9-4.9-1.5-7.5-1.9c3-0.4,5.9-0.9,8.8-2C419.9,390.1,420.4,389.9,421,389.8z"/>
<path class="st5" d="M410.4,393.4c2.6,1.3,4,1.7,7,1.3c-0.5,4.6-1.9,8.9-1.5,13.6c-2.9,0-5.9,0.1-8.8,0.1l3.7-0.2
	c-2.2-4.1-1.6-8.2-1.2-12.6c-0.5,0-1,0-1.6,0.1C408.9,394.9,409.6,394.1,410.4,393.4z"/>
<path class="st1" d="M418.1,394.2L418.1,394.2c0.5,0.5,1,1,1.5,1.6c-0.2,4.2-0.4,8.4-0.2,12.6c-1.1,0-2.2,0-3.3,0
	c-0.4-4.7,0.9-9,1.5-13.6L418.1,394.2z"/>
<path class="st1" d="M408.2,395.7c0.5,0,1-0.1,1.6-0.1c-0.4,4.4-1,8.5,1.2,12.6l-3.7,0.2l0.3-1.6l-1.5,0.3c-0.1-2.3-0.1-4.6-0.1-6.9
	l1.1,0.6C407.5,399.3,407.1,397.1,408.2,395.7z"/>
<path class="st1" d="M419.9,417.2c0.5,3.3,0.8,6.6,0.5,10C418.2,424.6,419.6,420.3,419.9,417.2z"/>
<path class="st1" d="M418.1,431c2.7-0.4,5.1-0.5,7.8,0c-0.6,4-0.6,7.7-0.1,11.7c-0.4,0.4-0.8,0.9-1.2,1.3c-1.2-2-2.5-4-4-5.9
	l-1.4-0.5C418.5,435.5,418,433.4,418.1,431z"/>
<path class="st5" d="M472.7,430.6c-5.5,6.1-12,10-18.6,14.7c-5.2,3.7-10.6,7.1-16.3,10.1c-2.6,1.4-5,3.1-7.3,5
	c4.9-0.1,9.7-0.7,14.6-1c0,1.1,0,2.2,0,3.4c-3.2,1.4-6.5,2.3-9.9,3c1.2,2.6,2.4,5.3,3.3,8l-1.3-0.7c-1-1.7-2-3.4-3-5.1l-0.9-0.4
	l0.6-2.1l-1.6,0.1l-0.1-2.3c-1.2,0.1-2.4,0.3-3.7,0.4l-1.1,0.3c-1.5,0.4-3,0.8-4.6,1.1c2.1,0.5,4.3,1,6.4,1.5
	c0,3.6-0.1,7.3-0.2,10.9c0.6,0.7,1.1,1.3,1.7,2c-1-0.1-2.1-0.2-3.1-0.3c-0.1-3.4-0.3-6.9-0.4-10.3c-1.2-0.5-2.3-1-3.5-1.5
	c-1-0.4-1.9-0.7-2.9-1.1l-0.9-0.3l-2.1-0.7l-0.9-0.4l-0.4-0.2c5-1.1,8.9-3.7,13.5-6c10-5.1,19.4-11.2,28.6-17.7
	C463.4,437.6,467.8,433.8,472.7,430.6z"/>
<path class="st1" d="M425.9,431.1c0.2,3.3,0.2,6.6,0.2,10c2.1,0.6,4.2,1.2,6.3,1.8c1.2-0.7,2.4-1.4,3.6-2.1l0.1-1.9
	c0.7,0.2,1.4,0.4,2.1,0.6c0,0.9,0,1.8,0,2.8l-2.5-0.3l-0.1,1.5c-1.4-0.2-2.8-0.4-4.1-0.6l-0.2,1.2c-2.5,0.5-5,1.1-7.5,1.8l0.1,0.7
	l-0.8,0c-2.2,0-4.3-0.1-6.5,0.4l-1.9,0.9c-3.2,0.2-6.5,0.1-9.7-0.1l-0.3,0l-1.2-0.7c1.7-0.1,3.4-0.3,5.1-0.4l-0.4-1.2
	c1.2,0.1,2.5,0.2,3.7,0.2l-0.4-1.1c3.9-1.2,7.9-1.5,11.9-1.7c-1.1-0.2-2.1-0.4-3.2-0.6c0.1-1.4,0.2-2.7,0.3-4.1
	c1.6,1.8,2.8,3.8,4,5.9c0.4-0.4,0.8-0.9,1.2-1.3C425.3,438.8,425.2,435.1,425.9,431.1z"/>
<path class="st5" d="M431.2,444l-0.2,1.4c-1.1,0.1-2.2,0.1-3.3,0.2c-3.8,3.9-8.4,5.6-13,8.2c-8.9,5-18.1,8.5-27.5,12
	c0.1-0.7,0.2-1.4,0.3-2.2c9.4-2.5,18.6-7.1,27.4-11.5c3-1.5,5.6-3.4,8.1-5.6l0.8,0l-0.1-0.7C426.2,445.1,428.7,444.5,431.2,444z"/>
<path class="st1" d="M404.7,447.7l0.3,0c3.2,0.2,6.5,0.3,9.7,0.1c-3.1,0.9-6.3,1.2-9.4,2.2c-1.7,0.1-3.5,0.1-5.2,0l-0.1,0l-1-1.2
	l2.1-0.1C402.3,448.4,403.5,448,404.7,447.7z"/>
<path class="st1" d="M400,450l0.1,0c1.7,0.1,3.5,0.1,5.2,0c-5.1,1-9,3.6-14,1.2C394.2,450.8,397,450,400,450z"/>
<path class="st1" d="M382.2,454.7c2.6,4,3.4,6.6,3.3,11.5c1.6,2.4,2.6,4.7,3.3,7.6c-0.9,0.2-1.8,0.5-2.8,0.7
	c-0.4-2.8-0.7-5.7-1.5-8.3C383.4,462.2,381.5,459,382.2,454.7z"/>
<path class="st3" d="M444.1,460.8c-3.3,3.6-7.1,3.5-11.5,4l-0.4-3.1C436.2,460.9,440.1,460.8,444.1,460.8z"/>
<path class="st6" d="M416.6,464.7l0.4,0.2l0.9,0.4c-0.2,0.8-0.4,1.5-0.6,2.3c1.3,0.1,2.5,0.3,3.8,0.4c-2.5,1.4-4.8,2.3-7.6,2.8
	c0-1.1-0.4-1.9-1.2-2.6c-0.6-0.7-1.3-1.3-1.9-2C412.4,465.5,414.5,465.1,416.6,464.7z"/>
<path class="st1" d="M427.6,463.9l1.1-0.3c1.2-0.1,2.4-0.3,3.7-0.4l0.1,2.3l1.6-0.1l-0.6,2.1l0.9,0.4c1,1.7,2,3.4,3,5.1l1.3,0.7
	l0.4,1c-0.3,0.9-0.7,1.8-1,2.7c-1.3,0-2.5,0.1-3.8,0.1c0.8,1.6,1.5,3.2,2.1,4.9c-0.2,2-0.5,3.9-0.9,5.9c-0.8-3-0.7-5.8-0.3-8.9
	l-3-0.1l-1.1-0.1c-0.6-0.7-1.1-1.3-1.7-2c0.1-3.6,0.2-7.3,0.2-10.9c-2.1-0.5-4.2-1-6.4-1.5C424.6,464.6,426.1,464.3,427.6,463.9z"/>
<path class="st1" d="M417.9,465.2l2.1,0.7l0.9,0.3c1,0.3,2,0.7,2.9,1.1l-2.8,0.6c-1.3-0.1-2.5-0.3-3.8-0.4
	C417.4,466.7,417.7,466,417.9,465.2z"/>
<path class="st0" d="M412.2,468c0.8,0.7,1.2,1.6,1.2,2.6l-0.8,0.2c-1.1-0.2-2.2-0.6-3.1-1.2C408.3,468.1,411.3,467.7,412.2,468z"/>
<path class="st1" d="M404.7,469.8c0,0.8,0,1.6,0,2.5l-1.2,0.2c-2.1,0.4-4.3,0.5-6.4,0.7l0.6,1.2c-1.2-0.1-2.5-0.1-3.7-0.2
	C397.4,472.4,400.9,470.7,404.7,469.8z"/>
<path class="st2" d="M402,480.2l2.8,0.1c-0.3,2.8-0.4,5.3,0.3,8c0.3-1.8,0.6-3.6,0.8-5.4c1,1.8,4,5.6,1.8,7.4c-1.2,0.1-2.5,0-3.7,0
	C403.3,487,402.6,483.6,402,480.2z"/>
</svg>
