<?xml version="1.0" encoding="utf-8"?>
<!-- Generator: Adobe Illustrator 26.0.0, SVG Export Plug-In . SVG Version: 6.00 Build 0)  -->
<svg version="1.1" id="Layer_1" xmlns="http://www.w3.org/2000/svg" xmlns:xlink="http://www.w3.org/1999/xlink" x="0px" y="0px"
	 viewBox="0 0 555 555" style="enable-background:new 0 0 555 555;" xml:space="preserve">
<style type="text/css">
	.st0{fill:#676868;}
	.st1{fill:#141414;}
	.st2{fill:#C9C9C9;}
	.st3{fill:#8B8B8B;}
	.st4{fill:#414141;}
	.st5{fill:#FFFFFF;}
	.st6{fill:#A8A7A7;}
	.st7{fill:#010101;}
	.st8{font-family:'GaramondPremrPro-ItCapt';}
	.st9{font-size:48px;}
</style>
<g>
	<path class="st0" d="M250.9,52.5c0.7,0.2,1.4,0.4,2.1,0.6c1.1,4,2.8,7.5,2.9,11.7c0.8,0.1,1.6,0.2,2.3,0.3c-2.3,1-4.4,2.2-6.5,3.5
		c1.6,2.3,2.8,4.7,3.6,7.4c-2.3-1.8-4-4.3-5.1-7.1c0.3-1.3,1.6-2.3,2.4-3.3C252.8,61.2,251.6,57,250.9,52.5z"/>
	<path class="st1" d="M258.3,65.1l0.9,0c1.1,5.1,0,10.3,1.2,15.4l-0.7,0.1c-0.8,0.1-1.6,0.1-2.5,0.2c-0.4-1.5-0.3-2.9-1.2-4.2
		l-0.6-0.5c-0.8-2.7-2.1-5.1-3.6-7.4C253.9,67.4,256,66.1,258.3,65.1z"/>
	<path class="st2" d="M259.2,65.1l2.5,0c0,3.7-0.2,7.5-0.4,11.2c3.5-0.5,7-1.5,10.6-2.1c3.6,2,0,5.3-2.9,5.3l0.1-3.2
		c-2.5,0.5-4.8,0.3-6.6,2.3c1.3,0.2,2.6,0.5,3.9,0.6c-1.4,1.3-2.8,2.6-4.3,4c7.2,1.1,14.6,0,21.5,2c-4,0.7-7.7,0.9-11.8,0.7
		c-8.6-0.4-17.1,0.4-25.7-0.3c3.4-3.2,9.2-3.9,13.6-5.1l0.7-0.1C259.2,75.4,260.2,70.2,259.2,65.1z"/>
	<path class="st3" d="M256,76.6c0.9,1.3,0.8,2.7,1.2,4.2c0.8-0.1,1.6-0.1,2.5-0.2c-4.4,1.2-10.2,1.9-13.6,5.1
		c8.5,0.7,17.1-0.1,25.7,0.3c4,0.2,7.8,0,11.8-0.7c4.5,0.6,9,0.9,13.4,1.6c46.1,5.8,90.4,24.2,125.5,54.9
		c9.3,8.6,18.5,17.7,26.1,27.8c16.4,21.2,28.2,46,33.8,72.2c0.7,3.4,1.6,6.6,2.9,9.8c-0.6,2.3-0.5,4.4-0.2,6.7
		c0.4-1.7,0.7-3.4,0.9-5.1c1.2,2.5,2.1,5,2.7,7.7c-3.5,1-2,3.2-2.4,6c0.9-0.2,1.7-0.4,2.6-0.6c-1,2.4-3,4.8-2.9,7.4
		c-0.3,8,0.7,16.7-0.9,24.5c-0.7,3.6-1.1,7.1-1.4,10.8c-5.3,34.3-20.1,66.1-41.2,93.5c-2.4,2.9-4.5,5.8-6.2,9.2
		c-4.7,4.9-8.9,10.2-13.8,14.9c-5.2,5.4-11.1,10-16.3,15.3c-4.9,3.2-9.3,7.1-14.1,10.5c-9.2,6.5-18.6,12.5-28.6,17.7
		c-4.6,2.3-8.4,4.9-13.5,6c-2.1,0.4-4.2,0.9-6.2,1.4c0.6,0.6,1.3,1.3,1.9,2c-0.9-0.3-3.9,0.1-2.7,1.6c0.9,0.6,1.9,1,3.1,1.2
		c-2.6,0.5-5.3,1-7.9,1.5c0-0.8,0-1.6,0-2.5c-3.8,0.9-7.3,2.5-10.8,4.3c-9.5,3.3-19.8,4.5-29.6,6.8c-5.7,1.4-11.3,0.7-17,1.6
		c-4.8,0.7-9.5,1.5-14.4,1.5c-7.1,0.1-13.8-1.9-20.9-1.9c-5.3,0-10.6-0.3-15.8-1.3c-25.5-3.7-50.8-11.2-73.7-23.1
		c-16.9-8.3-32.5-19.1-46.4-31.8c-5.9-5.9-12-11.6-17.2-18c-5.2-6.1-9.9-12.9-14.3-19.6c-4.9-7.4-8.7-15.9-12.7-23.9
		c-0.7-0.4-1.3-0.9-2-1.3c-0.1-2.2-0.1-4.4-0.2-6.5l-0.6,0.2c-1.2,0.4-2.4,0.8-3.6,1.2c-0.7-2.4-1.5-4.8-2.1-7.2
		c0.9,0.1,1.7,0.1,2.6,0.2c-0.3-3,0-5.7-1.6-8.3c-0.1-0.9-0.2-1.7-0.3-2.6c-0.5-0.9-1-1.7-1.5-2.6c-1.3-2.9-2.3-5.8-2.6-9
		c-0.8-9.7-3.6-18.8-3.3-28.6c0.2-4.8-0.4-9.5-0.7-14.3c1.1-7,0.5-13.9,1-20.9c2.3-19.5,6.9-38.7,14.5-56.8
		c18.3-44.9,53.1-83.1,95.4-106.8c11.4-6.4,23.3-11.6,35.5-16.1c6.3-2,12.7-3.6,18.9-6c2.3-1,4.6-0.6,7-0.4c2.3,0.4,4.3,0,6.6-0.5
		c-1-0.4-1.9-0.8-2.9-1.2c-1.1-0.2-2.3-0.3-3.4-0.5c5.9-2.2,12.1-3,18.1-4.9c3.7-1.2,7.6-1.8,11.4-2.5C253.6,80.1,254.6,78,256,76.6
		z"/>
	<path class="st0" d="M269,76.3l-0.1,3.2l-2.6-0.3c-1.3-0.2-2.6-0.4-3.9-0.6C264.2,76.5,266.5,76.8,269,76.3z"/>
	<path class="st4" d="M240,83.5c1.1-0.5,3.4,0.2,2.5,1.7C241.1,86.8,237.3,85.2,240,83.5z"/>
	<path class="st4" d="M231.3,85.9c1.1-0.5,3.4,0,2.4,1.6C232.3,89.2,228.5,87.8,231.3,85.9z"/>
	<path class="st4" d="M221.9,87.7c1.1,0.2,2.3,0.3,3.4,0.5c1,0.4,2,0.7,2.9,1.2c-2.2,0.5-4.3,0.9-6.6,0.5L221.9,87.7z"/>
	<path class="st1" d="M218,91.2c-0.2,5.7,1.6,10.5,3.4,15.8c-1,0-2,0-3.1-0.1c0-2.6,0-5.3,0-7.9c-2-1.8-2.9-3.2-3.1-5.9
		C215.8,91.9,216.9,91.8,218,91.2z"/>
	<path class="st5" d="M246.9,94c8.6-1.6,17.2-1.1,25.9-1c-1.2,0.3-2.4,0.5-3.6,0.7c-1,0.1-1.9,0.2-2.9,0.3c-1.2,0.4-2.3,0.8-3.5,1.1
		c-3.2-0.2-6.4-0.5-9.6,0.2c-5.6,1.2-11.2,0.2-16.8,1.5c-5,1.2-10.1,1.4-15,2.6c0.2-1,0.4-2,0.6-3C230.4,96.5,238.5,94.5,246.9,94z"
		/>
	<path class="st0" d="M269.3,93.7c2.2,0.2,4.3,0.4,6.5,0.7c-1.6,3.4-4.8,3.4-7.9,4.7c0.3,2.1,0.6,4.2,0.8,6.3
		c-1.5-2.6-2.4-5.5-3.3-8.4c-1.4,0-2.8,0.1-4.2,0.1c1,4.7,1.4,9.2,1.4,13.9c1.4,0.1,2.7,0.2,4,0.3c0.7-0.5,1.3-0.9,2-1.4
		c-0.2,2-0.3,4-0.4,6c-0.8-0.8-1.7-1.6-2.5-2.4l-0.3-1.2c-1.3,0-2.7-0.1-4-0.1c0-2.9,0-5.9-0.1-8.9c-10.1-0.5-19.9,1.2-29.6,4
		c-1.9,0.7-3.8,0.4-5.7,0.2c0.5-0.9,0.9-1.7,1.4-2.6c3-1.7,6.8-2.4,10.2-3.2c5.9-1.3,11.6-3.3,17.7-4.2c2.7-0.4,5.2-1.2,7.6-2.5
		c1.2-0.3,2.4-0.7,3.5-1.1C267.4,93.9,268.3,93.8,269.3,93.7z"/>
	<path class="st5" d="M293,96.5c3.5,0.8,7.1,0.4,10.5,1.7c10.6,2.5,21.1,5,31.1,9.4c22.2,8.4,42.9,21.4,60.8,36.9
		c4.9,4.6,9.6,9.4,14.4,14.1c21.6,23.4,37,52.4,43.8,83.5c1.3,3.6,1.6,6.3,1.1,10.2c-1.2-3.5-1.4-7.3-2.6-10.9
		c-0.8-4.5-2.7-8.6-2.9-13.2c-0.6-0.8-1.3-1.7-1.9-2.6c-0.1-1.3-0.2-2.5-0.3-3.7c-1.7-3.2-3-6.6-4.4-10
		c-21.6-50.6-66.3-89.4-118.3-106.6c-4.7-1.7-9.5-2.4-14-4.7c-2.6-0.2-5.2-0.2-7.6-1.3c-3.8-1.7-8-0.8-12-2.2
		c-4.6-1.5-9.1-1-13.8-1.5C281.8,93.9,288.2,94.6,293,96.5z"/>
	<path class="st5" d="M195.8,96.2c-12.3,4.5-24.2,9.6-35.5,16.1c-42.3,23.6-77.1,61.8-95.4,106.8c-7.6,18.2-12.1,37.3-14.5,56.8
		c-0.6,7,0.1,13.9-1,20.9c0.3,4.8,1,9.4,0.7,14.3c-0.3,9.8,2.5,18.9,3.3,28.6c0.2,3.2,1.2,6.1,2.6,9l-1.3,2c0.4,1,0.7,2,1.1,3
		l0.8-0.5c0.4,1.7,0.8,3.4,1.2,5.1c-0.3,1.2-0.6,2.5-0.9,3.7c0.6,2.5,1.4,4.8,2.1,7.2c0.2,2.1,0.2,4.3,0.3,6.4
		c-3.7-0.4-7.3-1-11-1.4c-0.9,2.4-1.5,4.8-1.5,7.4l0.8,1.3l0.7,1.1c-4.2-0.8-8.9,0.6-13.1,1c0-1.4,0-2.7,0-4.1l2.1-0.4l-1.9,0.6
		c0.8,0.8,1.5,1.7,2.3,2.5c2.7-0.4,6.3,0,8.6-1.6l0.1-2.3l-3.5,0.1c1.6-1.8,3-3.9,4.9-5.4c3.2-1.1,7.1-0.6,10.5-0.8
		c-0.6-4.3-1.5-8.5-2.8-12.7c-1.9-6.3-1.7-12.7-3.1-19.2c-2.9-15.5-4.7-31.2-4.4-47.1c0.5-12.9,1.2-25.5,4.1-38
		c2.7-13.5,6.8-26.6,12.3-39.3c5.9-14.4,13.4-28.5,22.9-40.9c6.8-10.3,14.9-19.4,23.8-27.9c17.7-18.8,39.3-33.2,62.5-44.3
		C181,100.9,187.9,97.5,195.8,96.2z"/>
	<path class="st1" d="M261.2,97.2c1.4-0.1,2.8-0.1,4.2-0.1c0.8,2.9,1.8,5.7,3.3,8.4c0.6,1.1,1.3,2.2,1.9,3.3l-2,1.4
		c-0.7,0.5-1.3,0.9-2,1.4c-1.3-0.1-2.7-0.2-4-0.3C262.5,106.4,262.2,101.8,261.2,97.2z"/>
	<path class="st5" d="M215.3,98.9c-0.1,0.8-0.2,1.6-0.3,2.3c-25.2,6-48.5,18.6-67.8,35.8c-12.1,11-22.9,23.2-31.6,37.1
		c-6.1,8.7-10.9,18.8-15.6,28.5c-3.4,6.9-5.5,14.2-8.4,21.3c-1.9,4.7-2.8,9.8-4.4,14.6c-1.8,5.1-2.2,10.4-3.7,15.5
		c-0.3,6.3-2.5,12.3-2.5,18.7c-0.2,11.4-0.3,22.7,0,34.1c0.1,3.9-0.4,7.4,1.1,11c1.5,3.6,0.8,7.5,2.1,11.1c0.7,1.9,1.1,3.7,1,5.7
		c-1.3-1.8-2.5-3.6-2.8-5.9c-0.7-6.9-2.6-13.4-2.9-20.3c-2-7.8-1.7-15.7-1.5-23.7c0.5-5.2,1.7-10.2,1.8-15.4
		c0.1-5.7,2.6-10.7,2.5-16.6c2.2-7.5,2.7-15.2,6.1-22c0.1-1.6,0.2-3.1,0.4-4.7c0.6-0.8,1.2-1.6,1.8-2.5c0.3-1.9,0.6-3.7,1.3-5.5
		c2.8-7.4,6-14.7,9.3-22c4.3-8.5,9.3-17.1,14.4-25.1c5-7.2,10.3-14.2,16.1-20.8c18.5-20.9,42.3-36.9,68.7-46.2
		c3.2-1.4,6.4-2.2,9.8-2.8C211.9,100.4,213.6,99.7,215.3,98.9z"/>
	<path class="st3" d="M270.2,102.3c3-0.4,5.8-0.4,8.8,0.3c6.7,1.5,13.6,2.1,20.2,4.1c5.7,1.8,11.1,1.8,15.6,6.1
		c-14.6-4.7-28.8-8.8-44.3-8.3c0.6,1.5,1.2,3,1.8,4.5c-0.9,0.8-1.8,1.6-2.8,2.4c0.4,4.5,1.5,8.8,1.7,13.3c-0.7-0.1-1.5-0.2-2.2-0.3
		l-0.7-1.4c1.8,0.3,2.6-0.5,2.5-2.2c-1.2-2.3-2.7-0.5-2.9,1.3c-0.9-2.8-1.6-5.7-2.3-8.5c0.8,0.8,1.7,1.6,2.5,2.4c0.1-2,0.2-4,0.4-6
		l2-1.4c-0.6-1.1-1.3-2.2-1.9-3.3C269.2,104.4,269.7,103.3,270.2,102.3z"/>
	<path class="st5" d="M261.3,103.5c0,3,0.1,5.9,0.1,8.9c1.3,0,2.7,0.1,4,0.1l0.3,1.2c0.7,2.9,1.4,5.7,2.3,8.5l0.4,0.9l0.7,1.4
		c0.7,0.1,1.5,0.2,2.2,0.3c-0.2-4.5-1.3-8.8-1.7-13.3c0.9-0.8,1.8-1.6,2.8-2.4c-0.6-1.5-1.2-3-1.8-4.5c15.5-0.5,29.7,3.6,44.3,8.3
		c4.6,2.2,9.2,4.1,13.7,6.4c16,7.9,30.4,18.9,42.7,31.7c26.4,27.3,43.3,62.6,51,99.6c1,5.3,0.3,10.5,2.5,15.6
		c0.3,4.8-0.2,9.3,1.5,13.9c0.3,4,0.3,7.9,0.3,11.9c-3.5-0.1-7-0.2-10.4-0.2l0.4,2.2l-0.9,0.3c-3.7,1-7.6,1.1-11.2,2.2
		c-2.2,0.5-1.5,3.3-2,4.9c3.5-0.3,6.6-0.8,9.9-1.9c1.8-0.5,3.5-0.9,5.3-1.4l-0.1,2.8c0.8-0.1,1.5-0.2,2.3-0.3c2.2-0.4,4.4-1,6.6-1.5
		c0.3,8.9-1.4,17.5-2.1,26.3c-3.6,26.1-11.2,51.3-24.5,74.2c-9.6,16.6-22.3,31.6-37.5,43.4c-2.7-2.7-5.5-3.7-9.2-4.6
		c-0.6,1.3-1.2,2.6-1.7,3.9c-0.1,2.3,0.4,4.5,1.1,6.7l1.4,0.5c-0.1,1.4-0.2,2.7-0.3,4.1c1.1,0.2,2.1,0.4,3.2,0.6
		c-4.1,0.2-8,0.5-11.9,1.7l0.4,1.1c-1.2-0.1-2.5-0.2-3.7-0.2l0.4,1.2c-1.7,0.1-3.4,0.2-5.1,0.4l1.2,0.7c-1.2,0.3-2.4,0.6-3.6,1
		l-2.1,0.1l1,1.2c-3-0.1-5.8,0.7-8.7,1.2l-1.3,0.1c-1.3,0.9-2.6,1.9-3.8,3c-1.5,0.1-3.1,0.3-4.6,0.4c-3.7,2.2-7.7,2.6-11.9,3.6
		c-10.5,2.2-20.5,1.9-31.2,2c-8.4,0-17,0.1-25.3-1c-28.3-4.5-54.9-17.9-75.6-37.7c-18.2-17-31.8-37.7-42-60.3
		c-0.8-1.9-0.9-4.2-1.3-6.2c2.8,0.1,5.7,0.3,8.5,0.3l0.4-1.4l0.3-1.2l0.1-0.4l0.3-0.2c0.8-0.6,1.6-1.1,2.5-1.7
		c3.1-0.7,6.1-1.3,9.2-1.9c0.2-1.1,0.3-2.2,0.5-3.3c-4.3,0.7-8.4,1.7-12.8,1.6l-1.9-0.8l-0.7-0.3c-0.8-0.2-1.6-0.4-2.4-0.5l-0.1,1.1
		c-1.6,0.8-3.2,1.6-4.7,2.7c-0.9,0.1-1.9,0.2-2.8,0.2c-1.6-5-2.5-10.1-4.3-15c-0.1-1.1-0.3-2.3-0.5-3.4c-0.3-2.5-1.3-4.4-2.6-6.5
		c-0.7-3.2-1.2-6.4-2.3-9.5c-1.8-4.9-1.7-9.7-2.7-14.8c-1.5-6.9-1.1-13.8-1.9-20.8c-0.3-10.3-0.5-20.6,0.6-30.8
		c0.2-4.8,0.4-9.4,1.3-14.1c2.7-20.7,8.2-40.9,17.2-59.8c6.1-12.5,13.5-24.8,23-35c12.1-14.2,27.5-25.6,44.4-33.4
		c8-3.2,16.7-7.5,25.4-7.8c0.9-0.6,1.8-1.1,2.7-1.6l1.8,0.2c2,0.2,3.8,0.5,5.7-0.2C241.4,104.7,251.2,102.9,261.3,103.5z"/>
	<path class="st0" d="M270.9,120.9c0.2,1.7-0.6,2.4-2.5,2.2l-0.4-0.9C268.1,120.4,269.7,118.6,270.9,120.9z"/>
	<path class="st1" d="M477.5,248.7c2.7-1.2,4.1-0.3,6.5,1c-3.5,1.1-7.1,1.3-10.5,2.2c-5,1.4-10,1.3-14.8,3.6
		c-1.2-0.6-2.5-1.2-3.7-1.9c2.5-0.7,4.6-1,7.3-0.5C467,249.5,472.2,250.9,477.5,248.7z"/>
	<path class="st1" d="M485.2,251.5l0.7,1.6c-0.3,1.7-0.6,3.4-0.9,5.1C484.6,256,484.6,253.8,485.2,251.5z"/>
	<path class="st1" d="M453.8,256c-9.5,1.9-19.4,3.2-28.7,6.2c0-0.9,0-1.7,0.1-2.6c5.3-0.8,10.4-3.1,15.8-2.6
		C445.5,255.3,449.2,253,453.8,256z"/>
	<path class="st5" d="M457.1,256.7c0,3.3,0,6.7-0.2,10c-0.8-2.1-1.6-4.1-2.4-6.1c-0.2-1-0.5-1.9-0.6-2.9
		C454.9,257.3,456,257,457.1,256.7z"/>
	<path class="st0" d="M488.5,260.8l0.5,2.6l-0.3,2.8c-0.9,0.2-1.7,0.4-2.6,0.6C486.5,264,485,261.9,488.5,260.8z"/>
	<path class="st2" d="M489.1,263.4c0.9,2.7,1.8,5.2,2,8c-0.8-0.5-1.6-0.7-2.4-0.6c-0.5,1.3-0.6,2.6-0.2,4c0.5,2.7,1.1,5.1,2.6,7.5
		c0.1,2.1,0.4,4.3,0.7,6.4c0.3-2.3,0.4-4.7,0.8-7c3.9-0.9,8.2-0.5,12.2-0.6l1.5,0l-0.4,2.2c-4,0-8-0.4-12-0.7
		c0.9,4.8,3.3,8.7,0.3,13.3c-3.9-3.9-4.1-8.6-5.2-13.7c-3.4,5.1-1.5,13.2-2.3,19.2c-2.1,14.6-5.1,28.9-10.3,42.8
		c-8.2,22.7-20.3,43.7-35.2,62.7c-1.5,1.8-3.2,3.3-5,4.9c1.7-3.4,3.8-6.3,6.2-9.2c21.1-27.4,35.9-59.2,41.2-93.5
		c0.3-3.6,0.7-7.2,1.4-10.8c1.6-7.9,0.6-16.5,0.9-24.5c0-2.6,1.9-5,2.9-7.4L489.1,263.4z"/>
	<path class="st1" d="M425.8,265.8l0.2-0.1c0.3,6.9,3.1,13.3,2.7,20.2c1.3,2,2.7,3.9,2.8,6.4c0.3,3.9,1.7,7.5,2.5,11.3
		c-0.6,0.7-1.3,1.4-2,1.9c-0.9-2.8-1.2-5.7-1.3-8.6c-2.1,0-4.1,0-6.2,0.1c1.7-1,3.4-2,5-3.1c0.3-0.6,0.7-1.3,1-2
		c-3.9,1.1-7.8,1.4-11.7,2.1c-0.9,1-1.7,2-2.4,3.1l0.6-0.9l-2,0.1l0.6-2.2l0.9-0.3l-0.4-2.2c3.5,0,7,0.1,10.4,0.2
		c0-4,0-7.9-0.3-11.9c-1.8-4.6-1.2-9.1-1.5-13.9L425.8,265.8z"/>
	<path class="st1" d="M456.9,266.7l3-0.3c-0.9,4.2-2.5,7.9-1.7,12.4l0,0.1l0,1.5c-0.5-2.5-1.1-4.9-1.4-7.4l0-0.5
		C457.2,270.5,457.4,268.6,456.9,266.7z"/>
	<path class="st0" d="M488.7,270.8c0.9,0,1.7,0.2,2.4,0.6l0.1,0.9c-0.6,1.4-1.6,2.2-2.7,2.5C488.1,273.4,488.2,272,488.7,270.8z"/>
	<path class="st0" d="M503.9,272c0.3,1.1,0.6,2.1,0.9,3.2c1.4-0.3,2.8-0.5,4.3-0.8c1.3,0.2,2.5,0.5,3.8,0.7
		c-0.5,0.7-1.1,1.5-1.6,2.3c-1.6,0-3.1,0.1-4.7,0.1c-0.1,1.2-0.2,2.4-0.4,3.6l-1.5,0c-0.7-2.6-1.2-5.3-1.9-7.9
		c-3.8,2-7.6,4.2-11.6,5.9c-0.1,1.1-0.1,2.1-0.2,3.2c-1.5-2.3-2.1-4.8-2.6-7.5c1.2-0.3,2.1-1.1,2.7-2.5c0,1.6,0,3.1,0,4.7
		C495.8,276.1,499.3,272,503.9,272z"/>
	<path class="st3" d="M519.3,273.3c-2.4,2-4.8,3.7-8,4.1c0.5-0.7,1.1-1.5,1.6-2.3c-1.3-0.3-2.5-0.5-3.8-0.7
		C512.5,273.5,515.6,272.7,519.3,273.3z"/>
	<path class="st1" d="M502.9,273.1c0.7,2.6,1.2,5.3,1.9,7.9c-4,0.1-8.3-0.3-12.2,0.6c-0.4,2.3-0.5,4.7-0.8,7
		c-0.3-2.1-0.6-4.2-0.7-6.4c0.1-1.1,0.1-2.1,0.2-3.2C495.2,277.3,499,275.2,502.9,273.1z"/>
	<path class="st1" d="M430.5,292c-0.3,0.7-0.7,1.3-1,2c-1.6,1.2-3.3,2.1-5,3.1c-1.7,0.9-3.2,2.2-4.6,3.5c-0.8,0.1-1.5,0.2-2.3,0.3
		l0.1-2.8l-2,0.2l0.7-1.1c0.7-1.1,1.5-2.1,2.4-3.1C422.7,293.3,426.6,293,430.5,292z"/>
	<path class="st5" d="M456.2,294l0.7-1.1c0.3,6.2,0.8,13-0.9,19.1c-1.2,4.1-0.7,8.2-2.2,12.2c-1.3,3.7-1.4,7.6-2.7,11.3
		c-3.3,12.5-8.2,24.4-13.6,36.2c-10.9,21.6-25.1,41.5-42.2,58.7c-7.6,7-15.7,14.1-24,20.3c-0.7-0.2-1.4-0.4-2.1-0.6l-1-0.3
		c1.8-0.7,3.5-1.5,5-2.6c5.9-4.5,11.5-9.3,16.8-14.4c3.9-3,6.9-6,9.9-9.9c22.6-23.7,39.4-53,48.8-84.3c0.5-2.7,1.2-5.2,2.4-7.6
		c0.3-2.6,0.7-5.1,1.4-7.6c1.2-4.3,1.2-8.9,2.5-13.2C456.5,304.6,455.6,299.6,456.2,294z"/>
	<path class="st5" d="M415.6,294.2l-0.6,2.2l2-0.1l-0.6,0.9l-0.7,1.1l2-0.2c-1.8,0.5-3.5,0.9-5.3,1.4l0-3.5
		c-2.7,0.7-7.1-0.2-7.7,3.5c2.5,0,5.1,0,7.6,0c-3.3,1-6.5,1.6-9.9,1.9c0.5-1.6-0.2-4.5,2-4.9C408,295.3,411.9,295.2,415.6,294.2z"/>
	<path class="st0" d="M412.4,296l0,3.5c-2.5,0-5.1,0-7.6,0C405.3,295.8,409.7,296.6,412.4,296z"/>
	<path class="st1" d="M112.8,328.9c0.1,0.8,0.2,1.7,0.4,2.5c-6.2,0.3-11.8,2.9-18,3.5l-0.3-2.3C101,331.7,106.8,330.2,112.8,328.9z"
		/>
	<path class="st4" d="M94.2,333.9c0.4,4.7-7.3,2.9-9.5,1.5C87.3,334.1,91.4,332.5,94.2,333.9z"/>
	<path class="st1" d="M78.1,336.3c2.4-1,4,0.1,6.2,1.2c-7.8,1.9-16,3-23.7,5.5c-2.7,0.9-3.7,0.3-5.9-1.3
		C62.4,339.9,70.5,338.7,78.1,336.3z"/>
	<path class="st0" d="M116.6,335.3c1.2,2.1,2.3,4.1,2.6,6.5c-0.8-0.4-1.7-0.8-2.5-1.2c0,1.8,0,3.6-0.1,5.3c1-0.3,2-0.5,3.1-0.7
		c1.8,4.9,2.7,10,4.3,15l-1-0.2c-0.5-0.3-1.1-0.5-1.6-0.8c0.1,2.4,0.3,4.8,0.4,7.2c5-3.1,9.8-1.4,15.1-2.6l-0.3,1.2
		c-3.4,0-7.4-0.8-10.6,0.3c-0.9,3.6,0.9,8,1.5,11.6c-1.3,0.4-2.5,0.7-3.8,1.1c-3.4-13.5-6.2-27.1-9.2-40.7
		C115.1,336.8,115.8,336.1,116.6,335.3z"/>
	<path class="st2" d="M87.5,338.8c1.4,5.7,3.3,11.3,4.9,17c-1.2,0-2.4,0-3.7,0c-1.6-5.5-3.2-11-4.7-16.5
		C85.2,339.1,86.3,338.9,87.5,338.8z"/>
	<path class="st4" d="M116.7,340.7c0.8,0.4,1.7,0.8,2.5,1.2c0.2,1.1,0.3,2.2,0.5,3.4c-1,0.2-2,0.5-3.1,0.7
		C116.6,344.2,116.6,342.4,116.7,340.7z"/>
	<path class="st1" d="M55.9,348.6c0.5,0.9,1,1.7,1.5,2.6c0.1,0.9,0.2,1.7,0.3,2.6c1.6,2.7,1.3,5.3,1.6,8.3c-0.9-0.1-1.7-0.1-2.6-0.2
		c0.3-1.2,0.6-2.5,0.9-3.7c-0.4-1.7-0.8-3.4-1.2-5.1l-0.8,0.5c-0.4-1-0.7-2-1.1-3L55.9,348.6z"/>
	<path class="st1" d="M133.9,356.8c1,2.2,2,4.4,3,6.6l-0.1,0.4c-5.4,1.3-10.1-0.5-15.1,2.6c-0.1-2.4-0.2-4.8-0.4-7.2
		c0.5,0.3,1.1,0.5,1.6,0.8l1,0.2c0.9-0.1,1.9-0.1,2.8-0.2c1.5-1,3.1-1.9,4.7-2.7l0.1-1.1C132.3,356.4,133.1,356.6,133.9,356.8z"/>
	<path class="st1" d="M133.9,356.8l0.7,0.3l1.9,0.8c2.3,1.2,5.5,0.7,7.9,1.2l0.3,0.5c-2.8,0.8-7.7-0.8-7.6,3.6l-0.3,0.2
		C135.9,361.2,134.9,359,133.9,356.8z"/>
	<path class="st3" d="M149.3,356.4c-0.2,1.1-0.3,2.2-0.5,3.3c-3.1,0.6-6.1,1.2-9.2,1.9c-0.8,0.5-1.6,1.1-2.5,1.7
		c-0.2-4.4,4.8-2.8,7.6-3.6l-0.3-0.5c-2.5-0.4-5.6,0-7.9-1.2C141,358.1,145,357,149.3,356.4z"/>
	<path class="st0" d="M62.5,367.9c-0.2,2.2-0.3,4.4-0.4,6.6c0.7,0.4,1.4,0.9,2.1,1.3c-0.3,5.1,0.5,9.5,1.8,14.3
		c-0.8-0.1-1.5-0.3-2.3-0.4c-0.8-3.3-1.9-6.6-3-9.8c-1.5,0.5-2.9,1-4.4,1.5c2-1.6,3.9-3.3,5.8-4.9c-4.5-0.1-9-0.1-13.5-0.2
		c0.1,2.2,0.2,4.5,0.3,6.7l-1.5-0.3l-0.8-1.3c0-2.6,0.6-4.9,1.5-7.4c3.7,0.3,7.3,0.9,11,1.4c0-2.1-0.1-4.3-0.3-6.4
		C60.1,368.7,61.3,368.3,62.5,367.9z"/>
	<path class="st4" d="M123.3,368.1c0.7,0.8,1.5,1.7,2.2,2.5c0.1,1.9,0,3.8-0.1,5.7C121.8,375.4,123.6,370.7,123.3,368.1z"/>
	<path class="st5" d="M99.8,375.8c5.3,12.3,12.8,23.8,20.8,34.5c3.9,5.3,8.5,10,12.7,14.9c3.7,4.4,8.4,7.7,12.5,11.8
		c23.5,20.4,52.3,34.4,82.5,41.3c5.2,1.8,10.5,1.4,15.8,2.7c5.9,1.6,11.9,0.5,17.8,1.6c5.7,1,11.5,0.9,17.1-0.1
		c4.5-0.8,9-0.2,13.4-0.8c7.1-1.5,14.2-2.5,21.2-4.4c0.6-0.3,1.1-0.6,1.7-1c-0.1,0.7-0.1,1.5-0.2,2.2c-2.1,0.3-4.1,0.8-6.2,1.4
		c-3.9,1.5-8.1,0.6-12,2.3c-4.8,1.8-10.4,0.5-15.5,1.1c-7.2,1.1-14.7,1.2-21.9,0.1c-6.6-1-12.2,0.9-18.6-1.6
		c-3.7-1.4-7.5-0.4-11.1-2c-3.7-1.5-7.6-0.8-11.2-3c-2.8-0.3-5.1-0.9-7.6-2.2c-2.3-0.5-4.4-1.2-6.6-2.2c-3.7-0.9-7-2.3-10.4-3.9
		c-18.9-8-36.6-18.9-51.8-32.7c-9.5-7.7-16.7-16.8-24.2-26.4c-8.1-11.2-15.7-23.2-21.1-36C98,374.4,99.4,374.7,99.8,375.8z"/>
	<path class="st1" d="M48.8,376.3c4.5,0,9,0.1,13.5,0.2c-1.9,1.6-3.9,3.3-5.8,4.9c-0.9,0.5-1.8,0.9-2.8,1.3
		c-1.5,0.2-3.1,0.3-4.6,0.4C48.9,380.8,48.8,378.6,48.8,376.3z"/>
	<path class="st3" d="M37.4,380.3c1.9-0.3,3.8-0.5,5.6-0.7l3.5-0.1l-0.1,2.3c-2.2,1.6-5.9,1.2-8.6,1.6c-0.8-0.8-1.5-1.7-2.3-2.5
		L37.4,380.3z"/>
	<path class="st3" d="M47.5,382.8l1.5,0.3c1.5-0.1,3.1-0.2,4.6-0.4l2.6-0.2c-2.9,1.4-4.9,4-8,1.4L47.5,382.8z"/>
	<path class="st5" d="M343.7,404.5c2.6,1.3,4,1.7,7,1.3c-0.5,4.6-1.9,8.9-1.5,13.6c-2.9,0-5.9,0.1-8.8,0.1l3.7-0.2
		c-2.2-4.1-1.6-8.2-1.2-12.6c-0.5,0-1,0-1.6,0.1C342.1,406.1,342.9,405.3,343.7,404.5z"/>
	<path class="st1" d="M353.1,428.4c0.5,3.3,0.8,6.6,0.5,10C351.5,435.8,352.8,431.4,353.1,428.4z"/>
	<path class="st1" d="M351.3,442.2c2.7-0.4,5.1-0.5,7.8,0c-0.6,4-0.6,7.7-0.1,11.7c-0.4,0.4-0.8,0.9-1.2,1.3c-1.2-2-2.5-4-4-5.9
		l-1.4-0.5C351.7,446.7,351.3,444.5,351.3,442.2z"/>
	<path class="st5" d="M406,441.7c-5.5,6.1-12,10-18.6,14.7c-5.2,3.7-10.6,7.1-16.3,10.1c-2.6,1.4-5,3.1-7.3,5
		c4.9-0.1,9.7-0.7,14.6-1c0,1.1,0,2.2,0,3.4c-3.2,1.4-6.5,2.3-9.9,3c1.2,2.6,2.4,5.3,3.3,8l-1.3-0.7c-1-1.7-2-3.4-3-5.1l-0.9-0.4
		l0.6-2.1l-1.6,0.1l-0.1-2.3c-1.2,0.1-2.4,0.3-3.7,0.4l-1.1,0.3c-1.5,0.4-3,0.8-4.6,1.1c2.1,0.5,4.3,1,6.4,1.5
		c0,3.6-0.1,7.3-0.2,10.9c0.6,0.7,1.1,1.3,1.7,2c-1-0.1-2.1-0.2-3.1-0.3c-0.1-3.4-0.3-6.9-0.4-10.3c-1.2-0.5-2.3-1-3.5-1.5
		c-1-0.4-1.9-0.7-2.9-1.1l-0.9-0.3l-2.1-0.7l-0.9-0.4l-0.4-0.2c5-1.1,8.9-3.7,13.5-6c10-5.1,19.4-11.2,28.6-17.7
		C396.6,448.8,401.1,445,406,441.7z"/>
	<path class="st1" d="M359.1,442.3c0.2,3.3,0.2,6.6,0.2,10c2.1,0.6,4.2,1.2,6.3,1.8c1.2-0.7,2.4-1.4,3.6-2.1l0.1-1.9
		c0.7,0.2,1.4,0.4,2.1,0.6c0,0.9,0,1.8,0,2.8l-2.5-0.3l-0.1,1.5c-1.4-0.2-2.8-0.4-4.1-0.6l-0.2,1.2c-2.5,0.5-5,1.1-7.5,1.8l0.1,0.7
		l-0.8,0c-2.2,0-4.3-0.1-6.5,0.4l-1.9,0.9c-3.2,0.2-6.5,0.1-9.7-0.1l-0.3,0l-1.2-0.7c1.7-0.1,3.4-0.3,5.1-0.4l-0.4-1.2
		c1.2,0.1,2.5,0.2,3.7,0.2l-0.4-1.1c3.9-1.2,7.9-1.5,11.9-1.7c-1.1-0.2-2.1-0.4-3.2-0.6c0.1-1.4,0.2-2.7,0.3-4.1
		c1.6,1.8,2.8,3.8,4,5.9c0.4-0.4,0.8-0.9,1.2-1.3C358.5,450,358.5,446.3,359.1,442.3z"/>
	<path class="st5" d="M364.5,455.2l-0.2,1.4c-1.1,0.1-2.2,0.1-3.3,0.2c-3.8,3.9-8.4,5.6-13,8.2c-8.9,5-18.1,8.5-27.5,12
		c0.1-0.7,0.2-1.4,0.3-2.2c9.4-2.5,18.6-7.1,27.4-11.5c3-1.5,5.6-3.4,8.1-5.6l0.8,0L357,457C359.5,456.3,362,455.7,364.5,455.2z"/>
	<path class="st1" d="M337.9,458.9l0.3,0c3.2,0.2,6.5,0.3,9.7,0.1c-3.1,0.9-6.3,1.2-9.4,2.2c-1.7,0.1-3.5,0.1-5.2,0l-0.1,0l-1-1.2
		l2.1-0.1C335.6,459.6,336.7,459.2,337.9,458.9z"/>
	<path class="st1" d="M333.2,461.2l0.1,0c1.7,0.1,3.5,0.1,5.2,0c-5.1,1-9,3.6-14,1.2C327.4,462,330.2,461.1,333.2,461.2z"/>
	<path class="st1" d="M315.4,465.9c2.6,4,3.4,6.6,3.3,11.5c1.6,2.4,2.6,4.7,3.3,7.6c-0.9,0.2-1.8,0.5-2.8,0.7
		c-0.4-2.8-0.7-5.7-1.5-8.3C316.7,473.4,314.7,470.2,315.4,465.9z"/>
	<path class="st3" d="M377.4,472c-3.3,3.6-7.1,3.5-11.5,4l-0.4-3.1C369.4,472.1,373.4,472,377.4,472z"/>
	<path class="st6" d="M349.8,475.9l0.4,0.2l0.9,0.4c-0.2,0.8-0.4,1.5-0.6,2.3c1.3,0.1,2.5,0.3,3.8,0.4c-2.5,1.4-4.8,2.3-7.6,2.8
		c0-1.1-0.4-1.9-1.2-2.6c-0.6-0.7-1.3-1.3-1.9-2C345.6,476.7,347.7,476.2,349.8,475.9z"/>
	<path class="st1" d="M360.9,475l1.1-0.3c1.2-0.1,2.4-0.3,3.7-0.4l0.1,2.3l1.6-0.1l-0.6,2.1l0.9,0.4c1,1.7,2,3.4,3,5.1l1.3,0.7
		l0.4,1c-0.3,0.9-0.7,1.8-1,2.7c-1.3,0-2.5,0.1-3.8,0.1c0.8,1.6,1.5,3.2,2.1,4.9c-0.2,2-0.5,3.9-0.9,5.9c-0.8-3-0.7-5.8-0.3-8.9
		l-3-0.1l-1.1-0.1c-0.6-0.7-1.1-1.3-1.7-2c0.1-3.6,0.2-7.3,0.2-10.9c-2.1-0.5-4.2-1-6.4-1.5C357.8,475.8,359.3,475.4,360.9,475z"/>
	<path class="st1" d="M351.1,476.4l2.1,0.7l0.9,0.3c1,0.3,2,0.7,2.9,1.1l-2.8,0.6c-1.3-0.1-2.5-0.3-3.8-0.4
		C350.7,477.9,350.9,477.1,351.1,476.4z"/>
	<path class="st0" d="M345.5,479.2c0.8,0.7,1.2,1.6,1.2,2.6l-0.8,0.2c-1.1-0.2-2.2-0.6-3.1-1.2C341.5,479.3,344.5,478.9,345.5,479.2
		z"/>
	<path class="st1" d="M338,481c0,0.8,0,1.6,0,2.5l-1.2,0.2c-2.1,0.4-4.3,0.5-6.4,0.7l0.6,1.2c-1.2-0.1-2.5-0.1-3.7-0.2
		C330.7,483.5,334.2,481.9,338,481z"/>
	<path class="st2" d="M335.2,491.4l2.8,0.1c-0.3,2.8-0.4,5.3,0.3,8c0.3-1.8,0.6-3.6,0.8-5.4c1,1.8,4,5.6,1.8,7.4
		c-1.2,0.1-2.5,0-3.7,0C336.6,498.2,335.9,494.8,335.2,491.4z"/>
	<text transform="matrix(1 0 0 1 265.8706 153.185)" class="st7 st8 st9">c</text>
	<text transform="matrix(1 0 0 1 448.968 299.4651)" class="st7 st8 st9">b</text>
	<text transform="matrix(1 0 0 1 84.7402 373.7896)" class="st7 st8 st9">a</text>
	<text transform="matrix(1 0 0 1 342.4957 428.3695)" class="st7 st8 st9">d</text>
</g>
</svg>
